<?xml version="1.0" encoding="UTF-8" standalone="no"?>
<!DOCTYPE svg PUBLIC "-//W3C//DTD SVG 1.1//EN"
 "http://www.w3.org/Graphics/SVG/1.1/DTD/svg11.dtd">
<!-- Generated by graphviz version 14.0.2 (20251019.1705)
 -->
<!-- Title: cttnalt Pages: 1 -->
<svg width="3030pt" height="1041pt"
 viewBox="0.00 0.00 3030.00 1041.00" xmlns="http://www.w3.org/2000/svg" xmlns:xlink="http://www.w3.org/1999/xlink">
<g id="graph0" class="graph" transform="scale(1 1) rotate(0) translate(4 1036.8)">
<title>cttnalt</title>
<polygon fill="white" stroke="none" points="-4,4 -4,-1036.8 3026.2,-1036.8 3026.2,4 -4,4"/>
<!-- 1 -->
<g id="node1" class="node">
<title>1</title>
<ellipse fill="#6f42c1" stroke="black" cx="101.6" cy="-1011.2" rx="21.6" ry="21.6"/>
<text xml:space="preserve" text-anchor="middle" x="101.6" y="-1006.18" font-family="Helvetica,sans-Serif" font-size="12.00" fill="#ffffff">1</text>
</g>
<!-- 2 -->
<g id="node2" class="node">
<title>2</title>
<ellipse fill="#6f42c1" stroke="black" cx="288.6" cy="-1011.2" rx="21.6" ry="21.6"/>
<text xml:space="preserve" text-anchor="middle" x="288.6" y="-1006.18" font-family="Helvetica,sans-Serif" font-size="12.00" fill="#ffffff">2</text>
</g>
<!-- 1&#45;&#45;2 -->
<g id="edge34" class="edge">
<title>1&#45;&#45;2</title>
<path fill="none" stroke="#666666" stroke-width="7.2" d="M123.42,-1011.2C159.35,-1011.2 230.6,-1011.2 266.63,-1011.2"/>
<text xml:space="preserve" text-anchor="middle" x="195.1" y="-1017.7" font-family="Times,serif" font-size="20.00" fill="#333333">11</text>
</g>
<!-- 9 -->
<g id="node9" class="node">
<title>9</title>
<ellipse fill="#f1c40f" stroke="black" cx="49.6" cy="-887.5" rx="21.6" ry="21.6"/>
<text xml:space="preserve" text-anchor="middle" x="49.6" y="-882.48" font-family="Helvetica,sans-Serif" font-size="12.00" fill="#333333">9</text>
</g>
<!-- 1&#45;&#45;9 -->
<g id="edge33" class="edge">
<title>1&#45;&#45;9</title>
<path fill="none" stroke="#666666" stroke-width="7.2" d="M81.4,-1002.52C64.26,-994.8 40.82,-981.08 30.1,-960.6 21.02,-943.25 29.44,-921.28 37.87,-906.18"/>
<text xml:space="preserve" text-anchor="middle" x="39.85" y="-941.6" font-family="Times,serif" font-size="20.00" fill="#333333">11</text>
</g>
<!-- 1&#45;&#45;9 -->
<!-- 17 -->
<g id="node17" class="node">
<title>17</title>
<ellipse fill="#d9534f" stroke="black" cx="180.6" cy="-763.8" rx="21.6" ry="21.6"/>
<text xml:space="preserve" text-anchor="middle" x="180.6" y="-758.78" font-family="Helvetica,sans-Serif" font-size="12.00" fill="#ffffff">17</text>
</g>
<!-- 1&#45;&#45;17 -->
<!-- 3 -->
<g id="node3" class="node">
<title>3</title>
<ellipse fill="#6f42c1" stroke="black" cx="475.6" cy="-1011.2" rx="21.6" ry="21.6"/>
<text xml:space="preserve" text-anchor="middle" x="475.6" y="-1006.18" font-family="Helvetica,sans-Serif" font-size="12.00" fill="#ffffff">3</text>
</g>
<!-- 2&#45;&#45;3 -->
<g id="edge35" class="edge">
<title>2&#45;&#45;3</title>
<path fill="none" stroke="#666666" stroke-width="7.2" d="M310.42,-1011.2C346.35,-1011.2 417.6,-1011.2 453.63,-1011.2"/>
<text xml:space="preserve" text-anchor="middle" x="382.1" y="-1017.7" font-family="Times,serif" font-size="20.00" fill="#333333">11</text>
</g>
<!-- 4 -->
<g id="node4" class="node">
<title>4</title>
<ellipse fill="#6f42c1" stroke="black" cx="662.6" cy="-1011.2" rx="21.6" ry="21.6"/>
<text xml:space="preserve" text-anchor="middle" x="662.6" y="-1006.18" font-family="Helvetica,sans-Serif" font-size="12.00" fill="#ffffff">4</text>
</g>
<!-- 3&#45;&#45;4 -->
<g id="edge36" class="edge">
<title>3&#45;&#45;4</title>
<path fill="none" stroke="#666666" stroke-width="6.6" d="M497.42,-1011.2C533.35,-1011.2 604.6,-1011.2 640.63,-1011.2"/>
<text xml:space="preserve" text-anchor="middle" x="569.1" y="-1017.7" font-family="Times,serif" font-size="20.00" fill="#333333">10</text>
</g>
<!-- 5 -->
<g id="node5" class="node">
<title>5</title>
<ellipse fill="#6f42c1" stroke="black" cx="849.6" cy="-1011.2" rx="21.6" ry="21.6"/>
<text xml:space="preserve" text-anchor="middle" x="849.6" y="-1006.18" font-family="Helvetica,sans-Serif" font-size="12.00" fill="#ffffff">5</text>
</g>
<!-- 4&#45;&#45;5 -->
<g id="edge37" class="edge">
<title>4&#45;&#45;5</title>
<path fill="none" stroke="#666666" stroke-width="5.4" d="M684.42,-1011.2C720.35,-1011.2 791.6,-1011.2 827.63,-1011.2"/>
<text xml:space="preserve" text-anchor="middle" x="756.1" y="-1017.7" font-family="Times,serif" font-size="20.00" fill="#333333">8</text>
</g>
<!-- 6 -->
<g id="node6" class="node">
<title>6</title>
<ellipse fill="#6f42c1" stroke="black" cx="1036.6" cy="-1011.2" rx="21.6" ry="21.6"/>
<text xml:space="preserve" text-anchor="middle" x="1036.6" y="-1006.18" font-family="Helvetica,sans-Serif" font-size="12.00" fill="#ffffff">6</text>
</g>
<!-- 5&#45;&#45;6 -->
<g id="edge38" class="edge">
<title>5&#45;&#45;6</title>
<path fill="none" stroke="#666666" stroke-width="4.2" d="M871.42,-1011.2C907.35,-1011.2 978.6,-1011.2 1014.63,-1011.2"/>
<text xml:space="preserve" text-anchor="middle" x="943.1" y="-1017.7" font-family="Times,serif" font-size="20.00" fill="#333333">6</text>
</g>
<!-- 7 -->
<g id="node7" class="node">
<title>7</title>
<ellipse fill="#6f42c1" stroke="black" cx="1223.6" cy="-1011.2" rx="21.6" ry="21.6"/>
<text xml:space="preserve" text-anchor="middle" x="1223.6" y="-1006.18" font-family="Helvetica,sans-Serif" font-size="12.00" fill="#ffffff">7</text>
</g>
<!-- 6&#45;&#45;7 -->
<g id="edge39" class="edge">
<title>6&#45;&#45;7</title>
<path fill="none" stroke="#666666" stroke-width="3" d="M1058.42,-1011.2C1094.35,-1011.2 1165.6,-1011.2 1201.63,-1011.2"/>
<text xml:space="preserve" text-anchor="middle" x="1130.1" y="-1017.7" font-family="Times,serif" font-size="20.00" fill="#333333">4</text>
</g>
<!-- 8 -->
<g id="node8" class="node">
<title>8</title>
<ellipse fill="#6f42c1" stroke="black" cx="1410.6" cy="-1011.2" rx="21.6" ry="21.6"/>
<text xml:space="preserve" text-anchor="middle" x="1410.6" y="-1006.18" font-family="Helvetica,sans-Serif" font-size="12.00" fill="#ffffff">8</text>
</g>
<!-- 7&#45;&#45;8 -->
<g id="edge40" class="edge">
<title>7&#45;&#45;8</title>
<path fill="none" stroke="#666666" stroke-width="1.8" d="M1245.42,-1011.2C1281.35,-1011.2 1352.6,-1011.2 1388.63,-1011.2"/>
<text xml:space="preserve" text-anchor="middle" x="1317.1" y="-1017.7" font-family="Times,serif" font-size="20.00" fill="#333333">2</text>
</g>
<!-- 10 -->
<g id="node10" class="node">
<title>10</title>
<ellipse fill="#f1c40f" stroke="black" cx="21.6" cy="-763.8" rx="21.6" ry="21.6"/>
<text xml:space="preserve" text-anchor="middle" x="21.6" y="-758.78" font-family="Helvetica,sans-Serif" font-size="12.00" fill="#333333">10</text>
</g>
<!-- 9&#45;&#45;10 -->
<g id="edge41" class="edge">
<title>9&#45;&#45;10</title>
<path fill="none" stroke="#666666" stroke-width="7.2" d="M34.53,-871.95C26.16,-862.79 16.56,-850.21 12.1,-836.9 6.36,-819.78 9.99,-799.29 14.32,-784.54"/>
<text xml:space="preserve" text-anchor="middle" x="21.85" y="-817.9" font-family="Times,serif" font-size="20.00" fill="#333333">11</text>
</g>
<!-- 9&#45;&#45;17 -->
<g id="edge32" class="edge">
<title>9&#45;&#45;17</title>
<path fill="none" stroke="#666666" stroke-width="8.4" d="M61.65,-869.34C72.91,-853.97 90.71,-831.32 109.1,-814.4 125.67,-799.16 147.17,-784.86 162.25,-775.56"/>
<text xml:space="preserve" text-anchor="middle" x="118.85" y="-817.9" font-family="Times,serif" font-size="20.00" fill="#333333">13</text>
</g>
<!-- 11 -->
<g id="node11" class="node">
<title>11</title>
<ellipse fill="#f1c40f" stroke="black" cx="21.6" cy="-640.1" rx="21.6" ry="21.6"/>
<text xml:space="preserve" text-anchor="middle" x="21.6" y="-635.08" font-family="Helvetica,sans-Serif" font-size="12.00" fill="#333333">11</text>
</g>
<!-- 10&#45;&#45;11 -->
<g id="edge42" class="edge">
<title>10&#45;&#45;11</title>
<path fill="none" stroke="#666666" stroke-width="7.2" d="M21.6,-741.88C21.6,-719.59 21.6,-684.5 21.6,-662.16"/>
<text xml:space="preserve" text-anchor="middle" x="31.35" y="-694.2" font-family="Times,serif" font-size="20.00" fill="#333333">11</text>
</g>
<!-- 12 -->
<g id="node12" class="node">
<title>12</title>
<ellipse fill="#f1c40f" stroke="black" cx="21.6" cy="-516.4" rx="21.6" ry="21.6"/>
<text xml:space="preserve" text-anchor="middle" x="21.6" y="-511.38" font-family="Helvetica,sans-Serif" font-size="12.00" fill="#333333">12</text>
</g>
<!-- 11&#45;&#45;12 -->
<g id="edge43" class="edge">
<title>11&#45;&#45;12</title>
<path fill="none" stroke="#666666" stroke-width="6.6" d="M21.6,-618.18C21.6,-595.89 21.6,-560.8 21.6,-538.46"/>
<text xml:space="preserve" text-anchor="middle" x="31.35" y="-570.5" font-family="Times,serif" font-size="20.00" fill="#333333">10</text>
</g>
<!-- 13 -->
<g id="node13" class="node">
<title>13</title>
<ellipse fill="#f1c40f" stroke="black" cx="21.6" cy="-392.7" rx="21.6" ry="21.6"/>
<text xml:space="preserve" text-anchor="middle" x="21.6" y="-387.68" font-family="Helvetica,sans-Serif" font-size="12.00" fill="#333333">13</text>
</g>
<!-- 12&#45;&#45;13 -->
<g id="edge44" class="edge">
<title>12&#45;&#45;13</title>
<path fill="none" stroke="#666666" stroke-width="5.4" d="M21.6,-494.48C21.6,-472.19 21.6,-437.1 21.6,-414.76"/>
<text xml:space="preserve" text-anchor="middle" x="26.47" y="-446.8" font-family="Times,serif" font-size="20.00" fill="#333333">8</text>
</g>
<!-- 14 -->
<g id="node14" class="node">
<title>14</title>
<ellipse fill="#f1c40f" stroke="black" cx="21.6" cy="-269" rx="21.6" ry="21.6"/>
<text xml:space="preserve" text-anchor="middle" x="21.6" y="-263.98" font-family="Helvetica,sans-Serif" font-size="12.00" fill="#333333">14</text>
</g>
<!-- 13&#45;&#45;14 -->
<g id="edge45" class="edge">
<title>13&#45;&#45;14</title>
<path fill="none" stroke="#666666" stroke-width="4.2" d="M21.6,-370.78C21.6,-348.49 21.6,-313.4 21.6,-291.06"/>
<text xml:space="preserve" text-anchor="middle" x="26.47" y="-323.1" font-family="Times,serif" font-size="20.00" fill="#333333">6</text>
</g>
<!-- 15 -->
<g id="node15" class="node">
<title>15</title>
<ellipse fill="#f1c40f" stroke="black" cx="21.6" cy="-145.3" rx="21.6" ry="21.6"/>
<text xml:space="preserve" text-anchor="middle" x="21.6" y="-140.27" font-family="Helvetica,sans-Serif" font-size="12.00" fill="#333333">15</text>
</g>
<!-- 14&#45;&#45;15 -->
<g id="edge46" class="edge">
<title>14&#45;&#45;15</title>
<path fill="none" stroke="#666666" stroke-width="3" d="M21.6,-247.08C21.6,-224.79 21.6,-189.7 21.6,-167.36"/>
<text xml:space="preserve" text-anchor="middle" x="26.47" y="-199.4" font-family="Times,serif" font-size="20.00" fill="#333333">4</text>
</g>
<!-- 16 -->
<g id="node16" class="node">
<title>16</title>
<ellipse fill="#f1c40f" stroke="black" cx="21.6" cy="-21.6" rx="21.6" ry="21.6"/>
<text xml:space="preserve" text-anchor="middle" x="21.6" y="-16.57" font-family="Helvetica,sans-Serif" font-size="12.00" fill="#333333">16</text>
</g>
<!-- 15&#45;&#45;16 -->
<g id="edge47" class="edge">
<title>15&#45;&#45;16</title>
<path fill="none" stroke="#666666" stroke-width="1.8" d="M21.6,-123.38C21.6,-101.09 21.6,-66 21.6,-43.66"/>
<text xml:space="preserve" text-anchor="middle" x="26.47" y="-75.7" font-family="Times,serif" font-size="20.00" fill="#333333">2</text>
</g>
<!-- 33 -->
<g id="node33" class="node">
<title>33</title>
<ellipse fill="#3b78d8" stroke="black" cx="229.6" cy="-640.1" rx="21.6" ry="21.6"/>
<text xml:space="preserve" text-anchor="middle" x="229.6" y="-635.08" font-family="Helvetica,sans-Serif" font-size="12.00" fill="#ffffff">33</text>
</g>
<!-- 17&#45;&#45;33 -->
<g id="edge31" class="edge">
<title>17&#45;&#45;33</title>
<path fill="none" stroke="#666666" stroke-width="10" d="M172.45,-743.26C167.48,-728.24 163.41,-707.31 171.1,-690.7 179.21,-673.18 196.9,-659.6 210.72,-651.11"/>
<text xml:space="preserve" text-anchor="middle" x="180.85" y="-694.2" font-family="Times,serif" font-size="20.00" fill="#333333">20</text>
</g>
<!-- 18 -->
<g id="node18" class="node">
<title>18</title>
<ellipse fill="#d9534f" stroke="black" cx="335.6" cy="-763.8" rx="21.6" ry="21.6"/>
<text xml:space="preserve" text-anchor="middle" x="335.6" y="-758.78" font-family="Helvetica,sans-Serif" font-size="12.00" fill="#ffffff">18</text>
</g>
<!-- 18&#45;&#45;33 -->
<g id="edge30" class="edge">
<title>18&#45;&#45;33</title>
<path fill="none" stroke="#666666" stroke-width="10" d="M316.92,-752.27C302.27,-743.31 282.1,-729.36 268.1,-713.2 254.44,-697.43 243.78,-676 237.17,-660.61"/>
<text xml:space="preserve" text-anchor="middle" x="277.85" y="-694.2" font-family="Times,serif" font-size="20.00" fill="#333333">23</text>
</g>
<!-- 34 -->
<g id="node34" class="node">
<title>34</title>
<ellipse fill="#3b78d8" stroke="black" cx="447.6" cy="-640.1" rx="21.6" ry="21.6"/>
<text xml:space="preserve" text-anchor="middle" x="447.6" y="-635.08" font-family="Helvetica,sans-Serif" font-size="12.00" fill="#ffffff">34</text>
</g>
<!-- 18&#45;&#45;34 -->
<g id="edge29" class="edge">
<title>18&#45;&#45;34</title>
<path fill="none" stroke="#666666" stroke-width="10" d="M349.78,-747.39C371.21,-724.1 411.61,-680.21 433.18,-656.77"/>
<text xml:space="preserve" text-anchor="middle" x="411.38" y="-694.2" font-family="Times,serif" font-size="20.00" fill="#333333">34</text>
</g>
<!-- 19 -->
<g id="node19" class="node">
<title>19</title>
<ellipse fill="#d9534f" stroke="black" cx="520.6" cy="-763.8" rx="21.6" ry="21.6"/>
<text xml:space="preserve" text-anchor="middle" x="520.6" y="-758.78" font-family="Helvetica,sans-Serif" font-size="12.00" fill="#ffffff">19</text>
</g>
<!-- 19&#45;&#45;34 -->
<g id="edge28" class="edge">
<title>19&#45;&#45;34</title>
<path fill="none" stroke="#666666" stroke-width="10" d="M509.83,-744.84C496.03,-721.83 472.24,-682.18 458.42,-659.13"/>
<text xml:space="preserve" text-anchor="middle" x="500.39" y="-694.2" font-family="Times,serif" font-size="20.00" fill="#333333">23</text>
</g>
<!-- 35 -->
<g id="node35" class="node">
<title>35</title>
<ellipse fill="#3b78d8" stroke="black" cx="592.6" cy="-640.1" rx="21.6" ry="21.6"/>
<text xml:space="preserve" text-anchor="middle" x="592.6" y="-635.08" font-family="Helvetica,sans-Serif" font-size="12.00" fill="#ffffff">35</text>
</g>
<!-- 19&#45;&#45;35 -->
<g id="edge27" class="edge">
<title>19&#45;&#45;35</title>
<path fill="none" stroke="#666666" stroke-width="10" d="M530.05,-743.83C537.54,-729.11 548.48,-708.32 559.1,-690.7 565.75,-679.66 573.82,-667.68 580.37,-658.26"/>
<text xml:space="preserve" text-anchor="middle" x="568.85" y="-694.2" font-family="Times,serif" font-size="20.00" fill="#333333">34</text>
</g>
<!-- 20 -->
<g id="node20" class="node">
<title>20</title>
<ellipse fill="#d9534f" stroke="black" cx="714.6" cy="-763.8" rx="21.6" ry="21.6"/>
<text xml:space="preserve" text-anchor="middle" x="714.6" y="-758.78" font-family="Helvetica,sans-Serif" font-size="12.00" fill="#ffffff">20</text>
</g>
<!-- 20&#45;&#45;35 -->
<g id="edge26" class="edge">
<title>20&#45;&#45;35</title>
<path fill="none" stroke="#666666" stroke-width="10" d="M699.64,-747.88C676.23,-724.52 631.17,-679.58 607.68,-656.14"/>
<text xml:space="preserve" text-anchor="middle" x="674.28" y="-694.2" font-family="Times,serif" font-size="20.00" fill="#333333">21</text>
</g>
<!-- 36 -->
<g id="node36" class="node">
<title>36</title>
<ellipse fill="#3b78d8" stroke="black" cx="811.6" cy="-640.1" rx="21.6" ry="21.6"/>
<text xml:space="preserve" text-anchor="middle" x="811.6" y="-635.08" font-family="Helvetica,sans-Serif" font-size="12.00" fill="#ffffff">36</text>
</g>
<!-- 20&#45;&#45;36 -->
<g id="edge25" class="edge">
<title>20&#45;&#45;36</title>
<path fill="none" stroke="#666666" stroke-width="10" d="M727.68,-746.39C746.19,-723.16 779.85,-680.94 798.42,-657.64"/>
<text xml:space="preserve" text-anchor="middle" x="781.54" y="-694.2" font-family="Times,serif" font-size="20.00" fill="#333333">30</text>
</g>
<!-- 21 -->
<g id="node21" class="node">
<title>21</title>
<ellipse fill="#d9534f" stroke="black" cx="908.6" cy="-763.8" rx="21.6" ry="21.6"/>
<text xml:space="preserve" text-anchor="middle" x="908.6" y="-758.78" font-family="Helvetica,sans-Serif" font-size="12.00" fill="#ffffff">21</text>
</g>
<!-- 21&#45;&#45;36 -->
<g id="edge24" class="edge">
<title>21&#45;&#45;36</title>
<path fill="none" stroke="#666666" stroke-width="10" d="M895.52,-746.39C877.01,-723.16 843.35,-680.94 824.78,-657.64"/>
<text xml:space="preserve" text-anchor="middle" x="878.54" y="-694.2" font-family="Times,serif" font-size="20.00" fill="#333333">18</text>
</g>
<!-- 37 -->
<g id="node37" class="node">
<title>37</title>
<ellipse fill="#3b78d8" stroke="black" cx="1005.6" cy="-640.1" rx="21.6" ry="21.6"/>
<text xml:space="preserve" text-anchor="middle" x="1005.6" y="-635.08" font-family="Helvetica,sans-Serif" font-size="12.00" fill="#ffffff">37</text>
</g>
<!-- 21&#45;&#45;37 -->
<g id="edge1" class="edge">
<title>21&#45;&#45;37</title>
<path fill="none" stroke="#666666" stroke-width="10" d="M916.61,-743.23C923.4,-728.01 934.09,-706.82 947.1,-690.7 958.89,-676.09 975.44,-662.53 987.93,-653.29"/>
<text xml:space="preserve" text-anchor="middle" x="956.85" y="-694.2" font-family="Times,serif" font-size="20.00" fill="#333333">25</text>
</g>
<!-- 22 -->
<g id="node22" class="node">
<title>22</title>
<ellipse fill="#d9534f" stroke="black" cx="1102.6" cy="-763.8" rx="21.6" ry="21.6"/>
<text xml:space="preserve" text-anchor="middle" x="1102.6" y="-758.78" font-family="Helvetica,sans-Serif" font-size="12.00" fill="#ffffff">22</text>
</g>
<!-- 22&#45;&#45;37 -->
<g id="edge2" class="edge">
<title>22&#45;&#45;37</title>
<path fill="none" stroke="#666666" stroke-width="9.6" d="M1084.93,-750.61C1072.44,-741.37 1055.89,-727.81 1044.1,-713.2 1031.09,-697.08 1020.4,-675.89 1013.61,-660.67"/>
<text xml:space="preserve" text-anchor="middle" x="1053.85" y="-694.2" font-family="Times,serif" font-size="20.00" fill="#333333">15</text>
</g>
<!-- 38 -->
<g id="node38" class="node">
<title>38</title>
<ellipse fill="#3b78d8" stroke="black" cx="1199.6" cy="-640.1" rx="21.6" ry="21.6"/>
<text xml:space="preserve" text-anchor="middle" x="1199.6" y="-635.08" font-family="Helvetica,sans-Serif" font-size="12.00" fill="#ffffff">38</text>
</g>
<!-- 22&#45;&#45;38 -->
<g id="edge3" class="edge">
<title>22&#45;&#45;38</title>
<path fill="none" stroke="#666666" stroke-width="10" d="M1110.61,-743.23C1117.4,-728.01 1128.09,-706.82 1141.1,-690.7 1152.89,-676.09 1169.44,-662.53 1181.93,-653.29"/>
<text xml:space="preserve" text-anchor="middle" x="1150.85" y="-694.2" font-family="Times,serif" font-size="20.00" fill="#333333">25</text>
</g>
<!-- 23 -->
<g id="node23" class="node">
<title>23</title>
<ellipse fill="#d9534f" stroke="black" cx="1296.6" cy="-763.8" rx="21.6" ry="21.6"/>
<text xml:space="preserve" text-anchor="middle" x="1296.6" y="-758.78" font-family="Helvetica,sans-Serif" font-size="12.00" fill="#ffffff">23</text>
</g>
<!-- 23&#45;&#45;38 -->
<g id="edge4" class="edge">
<title>23&#45;&#45;38</title>
<path fill="none" stroke="#666666" stroke-width="9.6" d="M1278.93,-750.61C1266.44,-741.37 1249.89,-727.81 1238.1,-713.2 1225.09,-697.08 1214.4,-675.89 1207.61,-660.67"/>
<text xml:space="preserve" text-anchor="middle" x="1247.85" y="-694.2" font-family="Times,serif" font-size="20.00" fill="#333333">15</text>
</g>
<!-- 39 -->
<g id="node39" class="node">
<title>39</title>
<ellipse fill="#3b78d8" stroke="black" cx="1393.6" cy="-640.1" rx="21.6" ry="21.6"/>
<text xml:space="preserve" text-anchor="middle" x="1393.6" y="-635.08" font-family="Helvetica,sans-Serif" font-size="12.00" fill="#ffffff">39</text>
</g>
<!-- 23&#45;&#45;39 -->
<g id="edge5" class="edge">
<title>23&#45;&#45;39</title>
<path fill="none" stroke="#666666" stroke-width="10" d="M1304.61,-743.23C1311.4,-728.01 1322.09,-706.82 1335.1,-690.7 1346.89,-676.09 1363.44,-662.53 1375.93,-653.29"/>
<text xml:space="preserve" text-anchor="middle" x="1344.85" y="-694.2" font-family="Times,serif" font-size="20.00" fill="#333333">20</text>
</g>
<!-- 24 -->
<g id="node24" class="node">
<title>24</title>
<ellipse fill="#d9534f" stroke="black" cx="1490.6" cy="-763.8" rx="21.6" ry="21.6"/>
<text xml:space="preserve" text-anchor="middle" x="1490.6" y="-758.78" font-family="Helvetica,sans-Serif" font-size="12.00" fill="#ffffff">24</text>
</g>
<!-- 24&#45;&#45;39 -->
<g id="edge6" class="edge">
<title>24&#45;&#45;39</title>
<path fill="none" stroke="#666666" stroke-width="7.8" d="M1472.93,-750.61C1460.44,-741.37 1443.89,-727.81 1432.1,-713.2 1419.09,-697.08 1408.4,-675.89 1401.61,-660.67"/>
<text xml:space="preserve" text-anchor="middle" x="1441.85" y="-694.2" font-family="Times,serif" font-size="20.00" fill="#333333">12</text>
</g>
<!-- 40 -->
<g id="node40" class="node">
<title>40</title>
<ellipse fill="#3b78d8" stroke="black" cx="1587.6" cy="-640.1" rx="21.6" ry="21.6"/>
<text xml:space="preserve" text-anchor="middle" x="1587.6" y="-635.08" font-family="Helvetica,sans-Serif" font-size="12.00" fill="#ffffff">40</text>
</g>
<!-- 24&#45;&#45;40 -->
<g id="edge7" class="edge">
<title>24&#45;&#45;40</title>
<path fill="none" stroke="#666666" stroke-width="10" d="M1498.61,-743.23C1505.4,-728.01 1516.09,-706.82 1529.1,-690.7 1540.89,-676.09 1557.44,-662.53 1569.93,-653.29"/>
<text xml:space="preserve" text-anchor="middle" x="1538.85" y="-694.2" font-family="Times,serif" font-size="20.00" fill="#333333">20</text>
</g>
<!-- 25 -->
<g id="node25" class="node">
<title>25</title>
<ellipse fill="#d9534f" stroke="black" cx="1684.6" cy="-763.8" rx="21.6" ry="21.6"/>
<text xml:space="preserve" text-anchor="middle" x="1684.6" y="-758.78" font-family="Helvetica,sans-Serif" font-size="12.00" fill="#ffffff">25</text>
</g>
<!-- 25&#45;&#45;40 -->
<g id="edge8" class="edge">
<title>25&#45;&#45;40</title>
<path fill="none" stroke="#666666" stroke-width="7.8" d="M1666.93,-750.61C1654.44,-741.37 1637.89,-727.81 1626.1,-713.2 1613.09,-697.08 1602.4,-675.89 1595.61,-660.67"/>
<text xml:space="preserve" text-anchor="middle" x="1635.85" y="-694.2" font-family="Times,serif" font-size="20.00" fill="#333333">12</text>
</g>
<!-- 41 -->
<g id="node41" class="node">
<title>41</title>
<ellipse fill="#3b78d8" stroke="black" cx="1781.6" cy="-640.1" rx="21.6" ry="21.6"/>
<text xml:space="preserve" text-anchor="middle" x="1781.6" y="-635.08" font-family="Helvetica,sans-Serif" font-size="12.00" fill="#ffffff">41</text>
</g>
<!-- 25&#45;&#45;41 -->
<g id="edge9" class="edge">
<title>25&#45;&#45;41</title>
<path fill="none" stroke="#666666" stroke-width="9.6" d="M1697.68,-746.39C1716.19,-723.16 1749.85,-680.94 1768.42,-657.64"/>
<text xml:space="preserve" text-anchor="middle" x="1751.54" y="-694.2" font-family="Times,serif" font-size="20.00" fill="#333333">15</text>
</g>
<!-- 26 -->
<g id="node26" class="node">
<title>26</title>
<ellipse fill="#d9534f" stroke="black" cx="1873.6" cy="-763.8" rx="21.6" ry="21.6"/>
<text xml:space="preserve" text-anchor="middle" x="1873.6" y="-758.78" font-family="Helvetica,sans-Serif" font-size="12.00" fill="#ffffff">26</text>
</g>
<!-- 26&#45;&#45;41 -->
<g id="edge10" class="edge">
<title>26&#45;&#45;41</title>
<path fill="none" stroke="#666666" stroke-width="6" d="M1859.26,-747.61C1850.44,-738.02 1839.1,-725.21 1829.85,-713.2 1816.16,-695.42 1802.06,-673.91 1792.66,-659.04"/>
<text xml:space="preserve" text-anchor="middle" x="1834.72" y="-694.2" font-family="Times,serif" font-size="20.00" fill="#333333">9</text>
</g>
<!-- 42 -->
<g id="node42" class="node">
<title>42</title>
<ellipse fill="#3b78d8" stroke="black" cx="1965.6" cy="-640.1" rx="21.6" ry="21.6"/>
<text xml:space="preserve" text-anchor="middle" x="1965.6" y="-635.08" font-family="Helvetica,sans-Serif" font-size="12.00" fill="#ffffff">42</text>
</g>
<!-- 26&#45;&#45;42 -->
<g id="edge11" class="edge">
<title>26&#45;&#45;42</title>
<path fill="none" stroke="#666666" stroke-width="9.6" d="M1880.19,-742.87C1885.83,-727.63 1894.97,-706.62 1907.1,-690.7 1918.56,-675.66 1935.31,-662.05 1947.95,-652.9"/>
<text xml:space="preserve" text-anchor="middle" x="1916.85" y="-694.2" font-family="Times,serif" font-size="20.00" fill="#333333">15</text>
</g>
<!-- 27 -->
<g id="node27" class="node">
<title>27</title>
<ellipse fill="#d9534f" stroke="black" cx="2057.6" cy="-763.8" rx="21.6" ry="21.6"/>
<text xml:space="preserve" text-anchor="middle" x="2057.6" y="-758.78" font-family="Helvetica,sans-Serif" font-size="12.00" fill="#ffffff">27</text>
</g>
<!-- 27&#45;&#45;42 -->
<g id="edge12" class="edge">
<title>27&#45;&#45;42</title>
<path fill="none" stroke="#666666" stroke-width="6" d="M2043.26,-747.61C2034.44,-738.02 2023.1,-725.21 2013.85,-713.2 2000.16,-695.42 1986.06,-673.91 1976.66,-659.04"/>
<text xml:space="preserve" text-anchor="middle" x="2018.72" y="-694.2" font-family="Times,serif" font-size="20.00" fill="#333333">9</text>
</g>
<!-- 43 -->
<g id="node43" class="node">
<title>43</title>
<ellipse fill="#3b78d8" stroke="black" cx="2149.6" cy="-640.1" rx="21.6" ry="21.6"/>
<text xml:space="preserve" text-anchor="middle" x="2149.6" y="-635.08" font-family="Helvetica,sans-Serif" font-size="12.00" fill="#ffffff">43</text>
</g>
<!-- 27&#45;&#45;43 -->
<g id="edge13" class="edge">
<title>27&#45;&#45;43</title>
<path fill="none" stroke="#666666" stroke-width="9.6" d="M2064.19,-742.87C2069.83,-727.63 2078.97,-706.62 2091.1,-690.7 2102.56,-675.66 2119.31,-662.05 2131.95,-652.9"/>
<text xml:space="preserve" text-anchor="middle" x="2100.85" y="-694.2" font-family="Times,serif" font-size="20.00" fill="#333333">15</text>
</g>
<!-- 28 -->
<g id="node28" class="node">
<title>28</title>
<ellipse fill="#d9534f" stroke="black" cx="2241.6" cy="-763.8" rx="21.6" ry="21.6"/>
<text xml:space="preserve" text-anchor="middle" x="2241.6" y="-758.78" font-family="Helvetica,sans-Serif" font-size="12.00" fill="#ffffff">28</text>
</g>
<!-- 28&#45;&#45;43 -->
<g id="edge14" class="edge">
<title>28&#45;&#45;43</title>
<path fill="none" stroke="#666666" stroke-width="6" d="M2227.26,-747.61C2218.44,-738.02 2207.1,-725.21 2197.85,-713.2 2184.16,-695.42 2170.06,-673.91 2160.66,-659.04"/>
<text xml:space="preserve" text-anchor="middle" x="2202.72" y="-694.2" font-family="Times,serif" font-size="20.00" fill="#333333">9</text>
</g>
<!-- 44 -->
<g id="node44" class="node">
<title>44</title>
<ellipse fill="#3b78d8" stroke="black" cx="2333.6" cy="-640.1" rx="21.6" ry="21.6"/>
<text xml:space="preserve" text-anchor="middle" x="2333.6" y="-635.08" font-family="Helvetica,sans-Serif" font-size="12.00" fill="#ffffff">44</text>
</g>
<!-- 28&#45;&#45;44 -->
<g id="edge15" class="edge">
<title>28&#45;&#45;44</title>
<path fill="none" stroke="#666666" stroke-width="9.6" d="M2248.19,-742.87C2253.83,-727.63 2262.97,-706.62 2275.1,-690.7 2286.56,-675.66 2303.31,-662.05 2315.95,-652.9"/>
<text xml:space="preserve" text-anchor="middle" x="2284.85" y="-694.2" font-family="Times,serif" font-size="20.00" fill="#333333">15</text>
</g>
<!-- 29 -->
<g id="node29" class="node">
<title>29</title>
<ellipse fill="#d9534f" stroke="black" cx="2425.6" cy="-763.8" rx="21.6" ry="21.6"/>
<text xml:space="preserve" text-anchor="middle" x="2425.6" y="-758.78" font-family="Helvetica,sans-Serif" font-size="12.00" fill="#ffffff">29</text>
</g>
<!-- 29&#45;&#45;44 -->
<g id="edge16" class="edge">
<title>29&#45;&#45;44</title>
<path fill="none" stroke="#666666" stroke-width="6" d="M2411.26,-747.61C2402.44,-738.02 2391.1,-725.21 2381.85,-713.2 2368.16,-695.42 2354.06,-673.91 2344.66,-659.04"/>
<text xml:space="preserve" text-anchor="middle" x="2386.72" y="-694.2" font-family="Times,serif" font-size="20.00" fill="#333333">9</text>
</g>
<!-- 45 -->
<g id="node45" class="node">
<title>45</title>
<ellipse fill="#3b78d8" stroke="black" cx="2517.6" cy="-640.1" rx="21.6" ry="21.6"/>
<text xml:space="preserve" text-anchor="middle" x="2517.6" y="-635.08" font-family="Helvetica,sans-Serif" font-size="12.00" fill="#ffffff">45</text>
</g>
<!-- 29&#45;&#45;45 -->
<g id="edge17" class="edge">
<title>29&#45;&#45;45</title>
<path fill="none" stroke="#666666" stroke-width="9.6" d="M2432.19,-742.87C2437.83,-727.63 2446.97,-706.62 2459.1,-690.7 2470.56,-675.66 2487.31,-662.05 2499.95,-652.9"/>
<text xml:space="preserve" text-anchor="middle" x="2468.85" y="-694.2" font-family="Times,serif" font-size="20.00" fill="#333333">15</text>
</g>
<!-- 30 -->
<g id="node30" class="node">
<title>30</title>
<ellipse fill="#d9534f" stroke="black" cx="2609.6" cy="-763.8" rx="21.6" ry="21.6"/>
<text xml:space="preserve" text-anchor="middle" x="2609.6" y="-758.78" font-family="Helvetica,sans-Serif" font-size="12.00" fill="#ffffff">30</text>
</g>
<!-- 30&#45;&#45;45 -->
<g id="edge18" class="edge">
<title>30&#45;&#45;45</title>
<path fill="none" stroke="#666666" stroke-width="6" d="M2596.81,-745.88C2579.23,-722.63 2547.8,-681.05 2530.28,-657.88"/>
<text xml:space="preserve" text-anchor="middle" x="2576.72" y="-694.2" font-family="Times,serif" font-size="20.00" fill="#333333">9</text>
</g>
<!-- 46 -->
<g id="node46" class="node">
<title>46</title>
<ellipse fill="#3b78d8" stroke="black" cx="2696.6" cy="-640.1" rx="21.6" ry="21.6"/>
<text xml:space="preserve" text-anchor="middle" x="2696.6" y="-635.08" font-family="Helvetica,sans-Serif" font-size="12.00" fill="#ffffff">46</text>
</g>
<!-- 30&#45;&#45;46 -->
<g id="edge19" class="edge">
<title>30&#45;&#45;46</title>
<path fill="none" stroke="#666666" stroke-width="6" d="M2619.56,-744.14C2627.8,-729.22 2640.18,-708.02 2652.85,-690.7 2661.8,-678.47 2673.15,-665.66 2682.05,-656.13"/>
<text xml:space="preserve" text-anchor="middle" x="2657.72" y="-694.2" font-family="Times,serif" font-size="20.00" fill="#333333">9</text>
</g>
<!-- 31 -->
<g id="node31" class="node">
<title>31</title>
<ellipse fill="#d9534f" stroke="black" cx="2804.6" cy="-763.8" rx="21.6" ry="21.6"/>
<text xml:space="preserve" text-anchor="middle" x="2804.6" y="-758.78" font-family="Helvetica,sans-Serif" font-size="12.00" fill="#ffffff">31</text>
</g>
<!-- 31&#45;&#45;46 -->
<g id="edge20" class="edge">
<title>31&#45;&#45;46</title>
<path fill="none" stroke="#666666" stroke-width="3.6" d="M2790.48,-746.89C2769.78,-723.57 2731.42,-680.34 2710.72,-657.01"/>
<text xml:space="preserve" text-anchor="middle" x="2765.15" y="-694.2" font-family="Times,serif" font-size="20.00" fill="#333333">5</text>
</g>
<!-- 47 -->
<g id="node47" class="node">
<title>47</title>
<ellipse fill="#3b78d8" stroke="black" cx="2870.6" cy="-640.1" rx="21.6" ry="21.6"/>
<text xml:space="preserve" text-anchor="middle" x="2870.6" y="-635.08" font-family="Helvetica,sans-Serif" font-size="12.00" fill="#ffffff">47</text>
</g>
<!-- 31&#45;&#45;47 -->
<g id="edge21" class="edge">
<title>31&#45;&#45;47</title>
<path fill="none" stroke="#666666" stroke-width="4.2" d="M2814.62,-744.32C2827.1,-721.31 2848.28,-682.26 2860.7,-659.36"/>
<text xml:space="preserve" text-anchor="middle" x="2848.39" y="-694.2" font-family="Times,serif" font-size="20.00" fill="#333333">6</text>
</g>
<!-- 32 -->
<g id="node32" class="node">
<title>32</title>
<ellipse fill="#d9534f" stroke="black" cx="2934.6" cy="-763.8" rx="21.6" ry="21.6"/>
<text xml:space="preserve" text-anchor="middle" x="2934.6" y="-758.78" font-family="Helvetica,sans-Serif" font-size="12.00" fill="#ffffff">32</text>
</g>
<!-- 32&#45;&#45;47 -->
<g id="edge22" class="edge">
<title>32&#45;&#45;47</title>
<path fill="none" stroke="#666666" stroke-width="2.4" d="M2924.74,-744.05C2912.68,-721.11 2892.38,-682.53 2880.37,-659.67"/>
<text xml:space="preserve" text-anchor="middle" x="2913.21" y="-694.2" font-family="Times,serif" font-size="20.00" fill="#333333">3</text>
</g>
<!-- 48 -->
<g id="node48" class="node">
<title>48</title>
<ellipse fill="#3b78d8" stroke="black" cx="3000.6" cy="-640.1" rx="21.6" ry="21.6"/>
<text xml:space="preserve" text-anchor="middle" x="3000.6" y="-635.08" font-family="Helvetica,sans-Serif" font-size="12.00" fill="#ffffff">48</text>
</g>
<!-- 32&#45;&#45;48 -->
<g id="edge23" class="edge">
<title>32&#45;&#45;48</title>
<path fill="none" stroke="#666666" stroke-width="1.8" d="M2944.62,-744.32C2957.1,-721.31 2978.28,-682.26 2990.7,-659.36"/>
<text xml:space="preserve" text-anchor="middle" x="2978.39" y="-694.2" font-family="Times,serif" font-size="20.00" fill="#333333">2</text>
</g>
</g>
</svg>
