<?xml version="1.0" encoding="UTF-8" standalone="no"?>
<!DOCTYPE svg PUBLIC "-//W3C//DTD SVG 1.1//EN"
 "http://www.w3.org/Graphics/SVG/1.1/DTD/svg11.dtd">
<!-- Generated by graphviz version 14.0.2 (20251019.1705)
 -->
<!-- Title: cttnalt2 Pages: 1 -->
<svg width="3166pt" height="1019pt"
 viewBox="0.00 0.00 3166.00 1019.00" xmlns="http://www.w3.org/2000/svg" xmlns:xlink="http://www.w3.org/1999/xlink">
<g id="graph0" class="graph" transform="scale(1 1) rotate(0) translate(4 1015.3)">
<title>cttnalt2</title>
<polygon fill="white" stroke="none" points="-4,4 -4,-1015.3 3162.2,-1015.3 3162.2,4 -4,4"/>
<!-- 1 -->
<g id="node1" class="node">
<title>1</title>
<ellipse fill="#6f42c1" stroke="black" cx="187.6" cy="-989.7" rx="21.6" ry="21.6"/>
<text xml:space="preserve" text-anchor="middle" x="187.6" y="-984.68" font-family="Helvetica,sans-Serif" font-size="12.00" fill="#ffffff">1</text>
</g>
<!-- 2 -->
<g id="node2" class="node">
<title>2</title>
<ellipse fill="#6f42c1" stroke="black" cx="374.6" cy="-989.7" rx="21.6" ry="21.6"/>
<text xml:space="preserve" text-anchor="middle" x="374.6" y="-984.68" font-family="Helvetica,sans-Serif" font-size="12.00" fill="#ffffff">2</text>
</g>
<!-- 1&#45;&#45;2 -->
<g id="edge33" class="edge">
<title>1&#45;&#45;2</title>
<path fill="none" stroke="#666666" stroke-width="7.2" d="M209.42,-989.7C245.35,-989.7 316.6,-989.7 352.63,-989.7"/>
<text xml:space="preserve" text-anchor="middle" x="281.1" y="-996.2" font-family="Times,serif" font-size="20.00" fill="#333333">11</text>
</g>
<!-- 9 -->
<g id="node9" class="node">
<title>9</title>
<ellipse fill="#f1c40f" stroke="black" cx="21.6" cy="-887.5" rx="21.6" ry="21.6"/>
<text xml:space="preserve" text-anchor="middle" x="21.6" y="-882.48" font-family="Helvetica,sans-Serif" font-size="12.00" fill="#333333">9</text>
</g>
<!-- 1&#45;&#45;9 -->
<!-- 17 -->
<g id="node17" class="node">
<title>17</title>
<ellipse fill="#d9534f" stroke="black" cx="316.6" cy="-763.8" rx="21.6" ry="21.6"/>
<text xml:space="preserve" text-anchor="middle" x="316.6" y="-758.78" font-family="Helvetica,sans-Serif" font-size="12.00" fill="#ffffff">17</text>
</g>
<!-- 1&#45;&#45;17 -->
<g id="edge32" class="edge">
<title>1&#45;&#45;17</title>
<path fill="none" stroke="#666666" stroke-width="7.2" d="M193.05,-968.45C202.88,-934.39 225.92,-864.46 261.6,-814.4 271.97,-799.85 287.3,-786.47 299.14,-777.29"/>
<text xml:space="preserve" text-anchor="middle" x="241.05" y="-879.75" font-family="Times,serif" font-size="20.00" fill="#333333">11</text>
</g>
<!-- 1&#45;&#45;17 -->
<!-- 3 -->
<g id="node3" class="node">
<title>3</title>
<ellipse fill="#6f42c1" stroke="black" cx="561.6" cy="-989.7" rx="21.6" ry="21.6"/>
<text xml:space="preserve" text-anchor="middle" x="561.6" y="-984.68" font-family="Helvetica,sans-Serif" font-size="12.00" fill="#ffffff">3</text>
</g>
<!-- 2&#45;&#45;3 -->
<g id="edge34" class="edge">
<title>2&#45;&#45;3</title>
<path fill="none" stroke="#666666" stroke-width="7.2" d="M396.42,-989.7C432.35,-989.7 503.6,-989.7 539.63,-989.7"/>
<text xml:space="preserve" text-anchor="middle" x="468.1" y="-996.2" font-family="Times,serif" font-size="20.00" fill="#333333">11</text>
</g>
<!-- 4 -->
<g id="node4" class="node">
<title>4</title>
<ellipse fill="#6f42c1" stroke="black" cx="748.6" cy="-989.7" rx="21.6" ry="21.6"/>
<text xml:space="preserve" text-anchor="middle" x="748.6" y="-984.68" font-family="Helvetica,sans-Serif" font-size="12.00" fill="#ffffff">4</text>
</g>
<!-- 3&#45;&#45;4 -->
<g id="edge35" class="edge">
<title>3&#45;&#45;4</title>
<path fill="none" stroke="#666666" stroke-width="6.6" d="M583.42,-989.7C619.35,-989.7 690.6,-989.7 726.63,-989.7"/>
<text xml:space="preserve" text-anchor="middle" x="655.1" y="-996.2" font-family="Times,serif" font-size="20.00" fill="#333333">10</text>
</g>
<!-- 5 -->
<g id="node5" class="node">
<title>5</title>
<ellipse fill="#6f42c1" stroke="black" cx="935.6" cy="-989.7" rx="21.6" ry="21.6"/>
<text xml:space="preserve" text-anchor="middle" x="935.6" y="-984.68" font-family="Helvetica,sans-Serif" font-size="12.00" fill="#ffffff">5</text>
</g>
<!-- 4&#45;&#45;5 -->
<g id="edge36" class="edge">
<title>4&#45;&#45;5</title>
<path fill="none" stroke="#666666" stroke-width="5.4" d="M770.42,-989.7C806.35,-989.7 877.6,-989.7 913.63,-989.7"/>
<text xml:space="preserve" text-anchor="middle" x="842.1" y="-996.2" font-family="Times,serif" font-size="20.00" fill="#333333">8</text>
</g>
<!-- 6 -->
<g id="node6" class="node">
<title>6</title>
<ellipse fill="#6f42c1" stroke="black" cx="1122.6" cy="-989.7" rx="21.6" ry="21.6"/>
<text xml:space="preserve" text-anchor="middle" x="1122.6" y="-984.68" font-family="Helvetica,sans-Serif" font-size="12.00" fill="#ffffff">6</text>
</g>
<!-- 5&#45;&#45;6 -->
<g id="edge37" class="edge">
<title>5&#45;&#45;6</title>
<path fill="none" stroke="#666666" stroke-width="4.2" d="M957.42,-989.7C993.35,-989.7 1064.6,-989.7 1100.63,-989.7"/>
<text xml:space="preserve" text-anchor="middle" x="1029.1" y="-996.2" font-family="Times,serif" font-size="20.00" fill="#333333">6</text>
</g>
<!-- 7 -->
<g id="node7" class="node">
<title>7</title>
<ellipse fill="#6f42c1" stroke="black" cx="1309.6" cy="-989.7" rx="21.6" ry="21.6"/>
<text xml:space="preserve" text-anchor="middle" x="1309.6" y="-984.68" font-family="Helvetica,sans-Serif" font-size="12.00" fill="#ffffff">7</text>
</g>
<!-- 6&#45;&#45;7 -->
<g id="edge38" class="edge">
<title>6&#45;&#45;7</title>
<path fill="none" stroke="#666666" stroke-width="3" d="M1144.42,-989.7C1180.35,-989.7 1251.6,-989.7 1287.63,-989.7"/>
<text xml:space="preserve" text-anchor="middle" x="1216.1" y="-996.2" font-family="Times,serif" font-size="20.00" fill="#333333">4</text>
</g>
<!-- 8 -->
<g id="node8" class="node">
<title>8</title>
<ellipse fill="#6f42c1" stroke="black" cx="1496.6" cy="-989.7" rx="21.6" ry="21.6"/>
<text xml:space="preserve" text-anchor="middle" x="1496.6" y="-984.68" font-family="Helvetica,sans-Serif" font-size="12.00" fill="#ffffff">8</text>
</g>
<!-- 7&#45;&#45;8 -->
<g id="edge39" class="edge">
<title>7&#45;&#45;8</title>
<path fill="none" stroke="#666666" stroke-width="1.8" d="M1331.42,-989.7C1367.35,-989.7 1438.6,-989.7 1474.63,-989.7"/>
<text xml:space="preserve" text-anchor="middle" x="1403.1" y="-996.2" font-family="Times,serif" font-size="20.00" fill="#333333">2</text>
</g>
<!-- 10 -->
<g id="node10" class="node">
<title>10</title>
<ellipse fill="#f1c40f" stroke="black" cx="21.6" cy="-763.8" rx="21.6" ry="21.6"/>
<text xml:space="preserve" text-anchor="middle" x="21.6" y="-758.78" font-family="Helvetica,sans-Serif" font-size="12.00" fill="#333333">10</text>
</g>
<!-- 9&#45;&#45;10 -->
<g id="edge41" class="edge">
<title>9&#45;&#45;10</title>
<path fill="none" stroke="#666666" stroke-width="7.2" d="M17.25,-865.85C15.6,-856.98 13.91,-846.48 13.1,-836.9 11.62,-819.44 14.25,-799.69 16.97,-785.28"/>
<text xml:space="preserve" text-anchor="middle" x="22.85" y="-817.9" font-family="Times,serif" font-size="20.00" fill="#333333">11</text>
</g>
<!-- 9&#45;&#45;17 -->
<g id="edge40" class="edge">
<title>9&#45;&#45;17</title>
<path fill="none" stroke="#666666" stroke-width="7.2" d="M36.38,-871.48C53.4,-855.05 82.92,-829.1 113.1,-814.4 174.89,-784.31 256.36,-771.61 294.78,-767.03"/>
<text xml:space="preserve" text-anchor="middle" x="122.85" y="-817.9" font-family="Times,serif" font-size="20.00" fill="#333333">11</text>
</g>
<!-- 11 -->
<g id="node11" class="node">
<title>11</title>
<ellipse fill="#f1c40f" stroke="black" cx="21.6" cy="-640.1" rx="21.6" ry="21.6"/>
<text xml:space="preserve" text-anchor="middle" x="21.6" y="-635.08" font-family="Helvetica,sans-Serif" font-size="12.00" fill="#333333">11</text>
</g>
<!-- 10&#45;&#45;11 -->
<g id="edge42" class="edge">
<title>10&#45;&#45;11</title>
<path fill="none" stroke="#666666" stroke-width="7.2" d="M21.6,-741.88C21.6,-719.59 21.6,-684.5 21.6,-662.16"/>
<text xml:space="preserve" text-anchor="middle" x="31.35" y="-694.2" font-family="Times,serif" font-size="20.00" fill="#333333">11</text>
</g>
<!-- 12 -->
<g id="node12" class="node">
<title>12</title>
<ellipse fill="#f1c40f" stroke="black" cx="21.6" cy="-516.4" rx="21.6" ry="21.6"/>
<text xml:space="preserve" text-anchor="middle" x="21.6" y="-511.38" font-family="Helvetica,sans-Serif" font-size="12.00" fill="#333333">12</text>
</g>
<!-- 11&#45;&#45;12 -->
<g id="edge43" class="edge">
<title>11&#45;&#45;12</title>
<path fill="none" stroke="#666666" stroke-width="6.6" d="M21.6,-618.18C21.6,-595.89 21.6,-560.8 21.6,-538.46"/>
<text xml:space="preserve" text-anchor="middle" x="31.35" y="-570.5" font-family="Times,serif" font-size="20.00" fill="#333333">10</text>
</g>
<!-- 13 -->
<g id="node13" class="node">
<title>13</title>
<ellipse fill="#f1c40f" stroke="black" cx="21.6" cy="-392.7" rx="21.6" ry="21.6"/>
<text xml:space="preserve" text-anchor="middle" x="21.6" y="-387.68" font-family="Helvetica,sans-Serif" font-size="12.00" fill="#333333">13</text>
</g>
<!-- 12&#45;&#45;13 -->
<g id="edge44" class="edge">
<title>12&#45;&#45;13</title>
<path fill="none" stroke="#666666" stroke-width="5.4" d="M21.6,-494.48C21.6,-472.19 21.6,-437.1 21.6,-414.76"/>
<text xml:space="preserve" text-anchor="middle" x="26.47" y="-446.8" font-family="Times,serif" font-size="20.00" fill="#333333">8</text>
</g>
<!-- 14 -->
<g id="node14" class="node">
<title>14</title>
<ellipse fill="#f1c40f" stroke="black" cx="21.6" cy="-269" rx="21.6" ry="21.6"/>
<text xml:space="preserve" text-anchor="middle" x="21.6" y="-263.98" font-family="Helvetica,sans-Serif" font-size="12.00" fill="#333333">14</text>
</g>
<!-- 13&#45;&#45;14 -->
<g id="edge45" class="edge">
<title>13&#45;&#45;14</title>
<path fill="none" stroke="#666666" stroke-width="4.2" d="M21.6,-370.78C21.6,-348.49 21.6,-313.4 21.6,-291.06"/>
<text xml:space="preserve" text-anchor="middle" x="26.47" y="-323.1" font-family="Times,serif" font-size="20.00" fill="#333333">6</text>
</g>
<!-- 15 -->
<g id="node15" class="node">
<title>15</title>
<ellipse fill="#f1c40f" stroke="black" cx="21.6" cy="-145.3" rx="21.6" ry="21.6"/>
<text xml:space="preserve" text-anchor="middle" x="21.6" y="-140.27" font-family="Helvetica,sans-Serif" font-size="12.00" fill="#333333">15</text>
</g>
<!-- 14&#45;&#45;15 -->
<g id="edge46" class="edge">
<title>14&#45;&#45;15</title>
<path fill="none" stroke="#666666" stroke-width="3" d="M21.6,-247.08C21.6,-224.79 21.6,-189.7 21.6,-167.36"/>
<text xml:space="preserve" text-anchor="middle" x="26.47" y="-199.4" font-family="Times,serif" font-size="20.00" fill="#333333">4</text>
</g>
<!-- 16 -->
<g id="node16" class="node">
<title>16</title>
<ellipse fill="#f1c40f" stroke="black" cx="21.6" cy="-21.6" rx="21.6" ry="21.6"/>
<text xml:space="preserve" text-anchor="middle" x="21.6" y="-16.57" font-family="Helvetica,sans-Serif" font-size="12.00" fill="#333333">16</text>
</g>
<!-- 15&#45;&#45;16 -->
<g id="edge47" class="edge">
<title>15&#45;&#45;16</title>
<path fill="none" stroke="#666666" stroke-width="1.8" d="M21.6,-123.38C21.6,-101.09 21.6,-66 21.6,-43.66"/>
<text xml:space="preserve" text-anchor="middle" x="26.47" y="-75.7" font-family="Times,serif" font-size="20.00" fill="#333333">2</text>
</g>
<!-- 33 -->
<g id="node33" class="node">
<title>33</title>
<g id="a_node33"><a xlink:title="33">
<ellipse fill="#3b78d8" stroke="black" cx="384.6" cy="-640.1" rx="21.6" ry="21.6"/>
<text xml:space="preserve" text-anchor="middle" x="384.6" y="-635.08" font-family="Helvetica,sans-Serif" font-size="12.00" fill="#ffffff">33</text>
</a>
</g>
</g>
<!-- 17&#45;&#45;33 -->
<g id="edge31" class="edge">
<title>17&#45;&#45;33</title>
<path fill="none" stroke="#666666" stroke-width="10" d="M308.05,-743.57C302.64,-728.34 298.19,-706.98 307.1,-690.7 319.14,-668.7 345.56,-655.03 364.2,-647.75"/>
<text xml:space="preserve" text-anchor="middle" x="316.85" y="-694.2" font-family="Times,serif" font-size="20.00" fill="#333333">20</text>
</g>
<!-- 18 -->
<g id="node18" class="node">
<title>18</title>
<ellipse fill="#d9534f" stroke="black" cx="470.6" cy="-763.8" rx="21.6" ry="21.6"/>
<text xml:space="preserve" text-anchor="middle" x="470.6" y="-758.78" font-family="Helvetica,sans-Serif" font-size="12.00" fill="#ffffff">18</text>
</g>
<!-- 18&#45;&#45;33 -->
<g id="edge30" class="edge">
<title>18&#45;&#45;33</title>
<path fill="none" stroke="#666666" stroke-width="10" d="M458.46,-745.62C442.07,-722.43 413.04,-681.34 396.68,-658.19"/>
<text xml:space="preserve" text-anchor="middle" x="445.05" y="-694.2" font-family="Times,serif" font-size="20.00" fill="#333333">22</text>
</g>
<!-- 34 -->
<g id="node34" class="node">
<title>34</title>
<g id="a_node34"><a xlink:title="34">
<ellipse fill="#3b78d8" stroke="black" cx="538.6" cy="-640.1" rx="21.6" ry="21.6"/>
<text xml:space="preserve" text-anchor="middle" x="538.6" y="-635.08" font-family="Helvetica,sans-Serif" font-size="12.00" fill="#ffffff">34</text>
</a>
</g>
</g>
<!-- 18&#45;&#45;34 -->
<g id="edge29" class="edge">
<title>18&#45;&#45;34</title>
<path fill="none" stroke="#666666" stroke-width="10" d="M477.5,-742.9C483,-728.05 491.38,-707.53 501.1,-690.7 508.01,-678.73 517.39,-666.33 525.03,-656.93"/>
<text xml:space="preserve" text-anchor="middle" x="510.85" y="-694.2" font-family="Times,serif" font-size="20.00" fill="#333333">34</text>
</g>
<!-- 19 -->
<g id="node19" class="node">
<title>19</title>
<ellipse fill="#d9534f" stroke="black" cx="675.6" cy="-763.8" rx="21.6" ry="21.6"/>
<text xml:space="preserve" text-anchor="middle" x="675.6" y="-758.78" font-family="Helvetica,sans-Serif" font-size="12.00" fill="#ffffff">19</text>
</g>
<!-- 19&#45;&#45;34 -->
<g id="edge28" class="edge">
<title>19&#45;&#45;34</title>
<path fill="none" stroke="#666666" stroke-width="10" d="M659.62,-748.6C633.22,-725.15 580.81,-678.6 554.48,-655.21"/>
<text xml:space="preserve" text-anchor="middle" x="629.12" y="-694.2" font-family="Times,serif" font-size="20.00" fill="#333333">22</text>
</g>
<!-- 35 -->
<g id="node35" class="node">
<title>35</title>
<g id="a_node35"><a xlink:title="35">
<ellipse fill="#3b78d8" stroke="black" cx="743.6" cy="-640.1" rx="21.6" ry="21.6"/>
<text xml:space="preserve" text-anchor="middle" x="743.6" y="-635.08" font-family="Helvetica,sans-Serif" font-size="12.00" fill="#ffffff">35</text>
</a>
</g>
</g>
<!-- 19&#45;&#45;35 -->
<g id="edge27" class="edge">
<title>19&#45;&#45;35</title>
<path fill="none" stroke="#666666" stroke-width="10" d="M678.32,-742.15C680.96,-727.12 685.96,-706.69 695.1,-690.7 703.23,-676.48 716.41,-663.37 726.98,-654.2"/>
<text xml:space="preserve" text-anchor="middle" x="704.85" y="-694.2" font-family="Times,serif" font-size="20.00" fill="#333333">33</text>
</g>
<!-- 20 -->
<g id="node20" class="node">
<title>20</title>
<ellipse fill="#d9534f" stroke="black" cx="829.6" cy="-763.8" rx="21.6" ry="21.6"/>
<text xml:space="preserve" text-anchor="middle" x="829.6" y="-758.78" font-family="Helvetica,sans-Serif" font-size="12.00" fill="#ffffff">20</text>
</g>
<!-- 20&#45;&#45;35 -->
<g id="edge26" class="edge">
<title>20&#45;&#45;35</title>
<path fill="none" stroke="#666666" stroke-width="10" d="M816.52,-745.98C809.21,-736.46 800,-724.27 792.1,-713.2 779.04,-694.9 764.76,-673.48 755.09,-658.77"/>
<text xml:space="preserve" text-anchor="middle" x="801.85" y="-694.2" font-family="Times,serif" font-size="20.00" fill="#333333">20</text>
</g>
<!-- 36 -->
<g id="node36" class="node">
<title>36</title>
<g id="a_node36"><a xlink:title="36">
<ellipse fill="#3b78d8" stroke="black" cx="937.6" cy="-640.1" rx="21.6" ry="21.6"/>
<text xml:space="preserve" text-anchor="middle" x="937.6" y="-635.08" font-family="Helvetica,sans-Serif" font-size="12.00" fill="#ffffff">36</text>
</a>
</g>
</g>
<!-- 20&#45;&#45;36 -->
<g id="edge25" class="edge">
<title>20&#45;&#45;36</title>
<path fill="none" stroke="#666666" stroke-width="10" d="M843.72,-746.89C864.42,-723.57 902.78,-680.34 923.48,-657.01"/>
<text xml:space="preserve" text-anchor="middle" x="903.02" y="-694.2" font-family="Times,serif" font-size="20.00" fill="#333333">30</text>
</g>
<!-- 21 -->
<g id="node21" class="node">
<title>21</title>
<ellipse fill="#d9534f" stroke="black" cx="1044.6" cy="-763.8" rx="21.6" ry="21.6"/>
<text xml:space="preserve" text-anchor="middle" x="1044.6" y="-758.78" font-family="Helvetica,sans-Serif" font-size="12.00" fill="#ffffff">21</text>
</g>
<!-- 21&#45;&#45;36 -->
<g id="edge24" class="edge">
<title>21&#45;&#45;36</title>
<path fill="none" stroke="#666666" stroke-width="10" d="M1030.61,-746.89C1010.11,-723.57 972.1,-680.34 951.59,-657.01"/>
<text xml:space="preserve" text-anchor="middle" x="1010.43" y="-694.2" font-family="Times,serif" font-size="20.00" fill="#333333">18</text>
</g>
<!-- 37 -->
<g id="node37" class="node">
<title>37</title>
<g id="a_node37"><a xlink:title="37">
<ellipse fill="#3b78d8" stroke="black" cx="1131.6" cy="-640.1" rx="21.6" ry="21.6"/>
<text xml:space="preserve" text-anchor="middle" x="1131.6" y="-635.08" font-family="Helvetica,sans-Serif" font-size="12.00" fill="#ffffff">37</text>
</a>
</g>
</g>
<!-- 21&#45;&#45;37 -->
<g id="edge1" class="edge">
<title>21&#45;&#45;37</title>
<path fill="none" stroke="#666666" stroke-width="10" d="M1053.03,-743.56C1060.05,-728.51 1070.86,-707.41 1083.1,-690.7 1092.64,-677.68 1105.48,-664.7 1115.55,-655.29"/>
<text xml:space="preserve" text-anchor="middle" x="1092.85" y="-694.2" font-family="Times,serif" font-size="20.00" fill="#333333">25</text>
</g>
<!-- 22 -->
<g id="node22" class="node">
<title>22</title>
<ellipse fill="#d9534f" stroke="black" cx="1262.6" cy="-763.8" rx="21.6" ry="21.6"/>
<text xml:space="preserve" text-anchor="middle" x="1262.6" y="-758.78" font-family="Helvetica,sans-Serif" font-size="12.00" fill="#ffffff">22</text>
</g>
<!-- 22&#45;&#45;37 -->
<g id="edge2" class="edge">
<title>22&#45;&#45;37</title>
<path fill="none" stroke="#666666" stroke-width="9.6" d="M1247.06,-748.36C1221.85,-724.94 1172.32,-678.93 1147.12,-655.52"/>
<text xml:space="preserve" text-anchor="middle" x="1218.58" y="-694.2" font-family="Times,serif" font-size="20.00" fill="#333333">15</text>
</g>
<!-- 38 -->
<g id="node38" class="node">
<title>38</title>
<g id="a_node38"><a xlink:title="38">
<ellipse fill="#3b78d8" stroke="black" cx="1325.6" cy="-640.1" rx="21.6" ry="21.6"/>
<text xml:space="preserve" text-anchor="middle" x="1325.6" y="-635.08" font-family="Helvetica,sans-Serif" font-size="12.00" fill="#ffffff">38</text>
</a>
</g>
</g>
<!-- 22&#45;&#45;38 -->
<g id="edge3" class="edge">
<title>22&#45;&#45;38</title>
<path fill="none" stroke="#666666" stroke-width="10" d="M1263.66,-741.86C1265.14,-726.87 1268.69,-706.62 1277.1,-690.7 1284.76,-676.22 1297.96,-663.13 1308.67,-654.03"/>
<text xml:space="preserve" text-anchor="middle" x="1286.85" y="-694.2" font-family="Times,serif" font-size="20.00" fill="#333333">25</text>
</g>
<!-- 23 -->
<g id="node23" class="node">
<title>23</title>
<ellipse fill="#d9534f" stroke="black" cx="1407.6" cy="-763.8" rx="21.6" ry="21.6"/>
<text xml:space="preserve" text-anchor="middle" x="1407.6" y="-758.78" font-family="Helvetica,sans-Serif" font-size="12.00" fill="#ffffff">23</text>
</g>
<!-- 23&#45;&#45;38 -->
<g id="edge4" class="edge">
<title>23&#45;&#45;38</title>
<path fill="none" stroke="#666666" stroke-width="9.6" d="M1395.81,-745.36C1389.39,-735.86 1381.3,-723.88 1374.1,-713.2 1361.54,-694.56 1347.17,-673.19 1337.35,-658.59"/>
<text xml:space="preserve" text-anchor="middle" x="1383.85" y="-694.2" font-family="Times,serif" font-size="20.00" fill="#333333">15</text>
</g>
<!-- 39 -->
<g id="node39" class="node">
<title>39</title>
<g id="a_node39"><a xlink:title="39">
<ellipse fill="#3b78d8" stroke="black" cx="1519.6" cy="-640.1" rx="21.6" ry="21.6"/>
<text xml:space="preserve" text-anchor="middle" x="1519.6" y="-635.08" font-family="Helvetica,sans-Serif" font-size="12.00" fill="#ffffff">39</text>
</a>
</g>
</g>
<!-- 23&#45;&#45;39 -->
<g id="edge5" class="edge">
<title>23&#45;&#45;39</title>
<path fill="none" stroke="#666666" stroke-width="10" d="M1421.78,-747.39C1443.21,-724.1 1483.61,-680.21 1505.18,-656.77"/>
<text xml:space="preserve" text-anchor="middle" x="1483.38" y="-694.2" font-family="Times,serif" font-size="20.00" fill="#333333">20</text>
</g>
<!-- 24 -->
<g id="node24" class="node">
<title>24</title>
<ellipse fill="#d9534f" stroke="black" cx="1616.6" cy="-763.8" rx="21.6" ry="21.6"/>
<text xml:space="preserve" text-anchor="middle" x="1616.6" y="-758.78" font-family="Helvetica,sans-Serif" font-size="12.00" fill="#ffffff">24</text>
</g>
<!-- 24&#45;&#45;39 -->
<g id="edge6" class="edge">
<title>24&#45;&#45;39</title>
<path fill="none" stroke="#666666" stroke-width="7.8" d="M1600.99,-748.27C1591.1,-738.72 1578.29,-725.72 1568.1,-713.2 1553.91,-695.77 1539.81,-674.2 1530.5,-659.22"/>
<text xml:space="preserve" text-anchor="middle" x="1577.85" y="-694.2" font-family="Times,serif" font-size="20.00" fill="#333333">12</text>
</g>
<!-- 40 -->
<g id="node40" class="node">
<title>40</title>
<g id="a_node40"><a xlink:title="40">
<ellipse fill="#3b78d8" stroke="black" cx="1713.6" cy="-640.1" rx="21.6" ry="21.6"/>
<text xml:space="preserve" text-anchor="middle" x="1713.6" y="-635.08" font-family="Helvetica,sans-Serif" font-size="12.00" fill="#ffffff">40</text>
</a>
</g>
</g>
<!-- 24&#45;&#45;40 -->
<g id="edge7" class="edge">
<title>24&#45;&#45;40</title>
<path fill="none" stroke="#666666" stroke-width="10" d="M1627.5,-744.68C1636.81,-729.7 1650.91,-708.13 1665.1,-690.7 1675.29,-678.18 1688.1,-665.18 1697.99,-655.63"/>
<text xml:space="preserve" text-anchor="middle" x="1674.85" y="-694.2" font-family="Times,serif" font-size="20.00" fill="#333333">20</text>
</g>
<!-- 25 -->
<g id="node25" class="node">
<title>25</title>
<g id="a_node25"><a xlink:title="25">
<ellipse fill="#d9534f" stroke="black" cx="1810.6" cy="-763.8" rx="21.6" ry="21.6"/>
<text xml:space="preserve" text-anchor="middle" x="1810.6" y="-758.78" font-family="Helvetica,sans-Serif" font-size="12.00" fill="#ffffff">25</text>
</a>
</g>
</g>
<!-- 25&#45;&#45;40 -->
<g id="edge8" class="edge">
<title>25&#45;&#45;40</title>
<path fill="none" stroke="#666666" stroke-width="7.8" d="M1797.52,-746.39C1779.01,-723.16 1745.35,-680.94 1726.78,-657.64"/>
<text xml:space="preserve" text-anchor="middle" x="1780.54" y="-694.2" font-family="Times,serif" font-size="20.00" fill="#333333">12</text>
</g>
<!-- 41 -->
<g id="node41" class="node">
<title>41</title>
<g id="a_node41"><a xlink:title="41">
<ellipse fill="#3b78d8" stroke="black" cx="1902.6" cy="-640.1" rx="21.6" ry="21.6"/>
<text xml:space="preserve" text-anchor="middle" x="1902.6" y="-635.08" font-family="Helvetica,sans-Serif" font-size="12.00" fill="#ffffff">41</text>
</a>
</g>
</g>
<!-- 25&#45;&#45;41 -->
<g id="edge9" class="edge">
<title>25&#45;&#45;41</title>
<path fill="none" stroke="#666666" stroke-width="8.4" d="M1821.75,-744.88C1831.21,-730.01 1845.39,-708.51 1859.1,-690.7 1868.32,-678.72 1879.6,-665.91 1888.36,-656.31"/>
<text xml:space="preserve" text-anchor="middle" x="1868.85" y="-694.2" font-family="Times,serif" font-size="20.00" fill="#333333">13</text>
</g>
<!-- 26 -->
<g id="node26" class="node">
<title>26</title>
<g id="a_node26"><a xlink:title="26">
<ellipse fill="#d9534f" stroke="black" cx="1999.6" cy="-763.8" rx="21.6" ry="21.6"/>
<text xml:space="preserve" text-anchor="middle" x="1999.6" y="-758.78" font-family="Helvetica,sans-Serif" font-size="12.00" fill="#ffffff">26</text>
</a>
</g>
</g>
<!-- 26&#45;&#45;41 -->
<g id="edge10" class="edge">
<title>26&#45;&#45;41</title>
<path fill="none" stroke="#666666" stroke-width="5.4" d="M1986.52,-746.39C1968.01,-723.16 1934.35,-680.94 1915.78,-657.64"/>
<text xml:space="preserve" text-anchor="middle" x="1964.66" y="-694.2" font-family="Times,serif" font-size="20.00" fill="#333333">8</text>
</g>
<!-- 42 -->
<g id="node42" class="node">
<title>42</title>
<g id="a_node42"><a xlink:title="42">
<ellipse fill="#3b78d8" stroke="black" cx="2086.6" cy="-640.1" rx="21.6" ry="21.6"/>
<text xml:space="preserve" text-anchor="middle" x="2086.6" y="-635.08" font-family="Helvetica,sans-Serif" font-size="12.00" fill="#ffffff">42</text>
</a>
</g>
</g>
<!-- 26&#45;&#45;42 -->
<g id="edge11" class="edge">
<title>26&#45;&#45;42</title>
<path fill="none" stroke="#666666" stroke-width="8.4" d="M2009.64,-744.15C2017.95,-729.25 2030.41,-708.05 2043.1,-690.7 2052.02,-678.5 2063.31,-665.69 2072.15,-656.15"/>
<text xml:space="preserve" text-anchor="middle" x="2052.85" y="-694.2" font-family="Times,serif" font-size="20.00" fill="#333333">13</text>
</g>
<!-- 27 -->
<g id="node27" class="node">
<title>27</title>
<g id="a_node27"><a xlink:title="27">
<ellipse fill="#d9534f" stroke="black" cx="2183.6" cy="-763.8" rx="21.6" ry="21.6"/>
<text xml:space="preserve" text-anchor="middle" x="2183.6" y="-758.78" font-family="Helvetica,sans-Serif" font-size="12.00" fill="#ffffff">27</text>
</a>
</g>
</g>
<!-- 27&#45;&#45;42 -->
<g id="edge12" class="edge">
<title>27&#45;&#45;42</title>
<path fill="none" stroke="#666666" stroke-width="6" d="M2170.52,-746.39C2152.01,-723.16 2118.35,-680.94 2099.78,-657.64"/>
<text xml:space="preserve" text-anchor="middle" x="2148.66" y="-694.2" font-family="Times,serif" font-size="20.00" fill="#333333">9</text>
</g>
<!-- 43 -->
<g id="node43" class="node">
<title>43</title>
<g id="a_node43"><a xlink:title="43">
<ellipse fill="#3b78d8" stroke="black" cx="2270.6" cy="-640.1" rx="21.6" ry="21.6"/>
<text xml:space="preserve" text-anchor="middle" x="2270.6" y="-635.08" font-family="Helvetica,sans-Serif" font-size="12.00" fill="#ffffff">43</text>
</a>
</g>
</g>
<!-- 27&#45;&#45;43 -->
<g id="edge13" class="edge">
<title>27&#45;&#45;43</title>
<path fill="none" stroke="#666666" stroke-width="9.6" d="M2193.64,-744.15C2201.95,-729.25 2214.41,-708.05 2227.1,-690.7 2236.02,-678.5 2247.31,-665.69 2256.15,-656.15"/>
<text xml:space="preserve" text-anchor="middle" x="2236.85" y="-694.2" font-family="Times,serif" font-size="20.00" fill="#333333">15</text>
</g>
<!-- 28 -->
<g id="node28" class="node">
<title>28</title>
<g id="a_node28"><a xlink:title="28">
<ellipse fill="#d9534f" stroke="black" cx="2367.6" cy="-763.8" rx="21.6" ry="21.6"/>
<text xml:space="preserve" text-anchor="middle" x="2367.6" y="-758.78" font-family="Helvetica,sans-Serif" font-size="12.00" fill="#ffffff">28</text>
</a>
</g>
</g>
<!-- 28&#45;&#45;43 -->
<g id="edge14" class="edge">
<title>28&#45;&#45;43</title>
<path fill="none" stroke="#666666" stroke-width="6" d="M2354.52,-746.39C2336.01,-723.16 2302.35,-680.94 2283.78,-657.64"/>
<text xml:space="preserve" text-anchor="middle" x="2332.66" y="-694.2" font-family="Times,serif" font-size="20.00" fill="#333333">9</text>
</g>
<!-- 44 -->
<g id="node44" class="node">
<title>44</title>
<g id="a_node44"><a xlink:title="44">
<ellipse fill="#3b78d8" stroke="black" cx="2454.6" cy="-640.1" rx="21.6" ry="21.6"/>
<text xml:space="preserve" text-anchor="middle" x="2454.6" y="-635.08" font-family="Helvetica,sans-Serif" font-size="12.00" fill="#ffffff">44</text>
</a>
</g>
</g>
<!-- 28&#45;&#45;44 -->
<g id="edge15" class="edge">
<title>28&#45;&#45;44</title>
<path fill="none" stroke="#666666" stroke-width="9.6" d="M2377.64,-744.15C2385.95,-729.25 2398.41,-708.05 2411.1,-690.7 2420.02,-678.5 2431.31,-665.69 2440.15,-656.15"/>
<text xml:space="preserve" text-anchor="middle" x="2420.85" y="-694.2" font-family="Times,serif" font-size="20.00" fill="#333333">15</text>
</g>
<!-- 29 -->
<g id="node29" class="node">
<title>29</title>
<g id="a_node29"><a xlink:title="29">
<ellipse fill="#d9534f" stroke="black" cx="2551.6" cy="-763.8" rx="21.6" ry="21.6"/>
<text xml:space="preserve" text-anchor="middle" x="2551.6" y="-758.78" font-family="Helvetica,sans-Serif" font-size="12.00" fill="#ffffff">29</text>
</a>
</g>
</g>
<!-- 29&#45;&#45;44 -->
<g id="edge16" class="edge">
<title>29&#45;&#45;44</title>
<path fill="none" stroke="#666666" stroke-width="6" d="M2538.52,-746.39C2520.01,-723.16 2486.35,-680.94 2467.78,-657.64"/>
<text xml:space="preserve" text-anchor="middle" x="2516.66" y="-694.2" font-family="Times,serif" font-size="20.00" fill="#333333">9</text>
</g>
<!-- 45 -->
<g id="node45" class="node">
<title>45</title>
<g id="a_node45"><a xlink:title="45">
<ellipse fill="#3b78d8" stroke="black" cx="2638.6" cy="-640.1" rx="21.6" ry="21.6"/>
<text xml:space="preserve" text-anchor="middle" x="2638.6" y="-635.08" font-family="Helvetica,sans-Serif" font-size="12.00" fill="#ffffff">45</text>
</a>
</g>
</g>
<!-- 29&#45;&#45;45 -->
<g id="edge17" class="edge">
<title>29&#45;&#45;45</title>
<path fill="none" stroke="#666666" stroke-width="9.6" d="M2561.64,-744.15C2569.95,-729.25 2582.41,-708.05 2595.1,-690.7 2604.02,-678.5 2615.31,-665.69 2624.15,-656.15"/>
<text xml:space="preserve" text-anchor="middle" x="2604.85" y="-694.2" font-family="Times,serif" font-size="20.00" fill="#333333">15</text>
</g>
<!-- 30 -->
<g id="node30" class="node">
<title>30</title>
<g id="a_node30"><a xlink:title="30">
<ellipse fill="#d9534f" stroke="black" cx="2730.6" cy="-763.8" rx="21.6" ry="21.6"/>
<text xml:space="preserve" text-anchor="middle" x="2730.6" y="-758.78" font-family="Helvetica,sans-Serif" font-size="12.00" fill="#ffffff">30</text>
</a>
</g>
</g>
<!-- 30&#45;&#45;45 -->
<g id="edge18" class="edge">
<title>30&#45;&#45;45</title>
<path fill="none" stroke="#666666" stroke-width="6" d="M2717.81,-745.88C2700.23,-722.63 2668.8,-681.05 2651.28,-657.88"/>
<text xml:space="preserve" text-anchor="middle" x="2697.72" y="-694.2" font-family="Times,serif" font-size="20.00" fill="#333333">9</text>
</g>
<!-- 46 -->
<g id="node46" class="node">
<title>46</title>
<g id="a_node46"><a xlink:title="46">
<ellipse fill="#3b78d8" stroke="black" cx="2817.6" cy="-640.1" rx="21.6" ry="21.6"/>
<text xml:space="preserve" text-anchor="middle" x="2817.6" y="-635.08" font-family="Helvetica,sans-Serif" font-size="12.00" fill="#ffffff">46</text>
</a>
</g>
</g>
<!-- 30&#45;&#45;46 -->
<g id="edge19" class="edge">
<title>30&#45;&#45;46</title>
<path fill="none" stroke="#666666" stroke-width="4.8" d="M2742.88,-745.62C2759.46,-722.43 2788.83,-681.34 2805.38,-658.19"/>
<text xml:space="preserve" text-anchor="middle" x="2786.77" y="-694.2" font-family="Times,serif" font-size="20.00" fill="#333333">7</text>
</g>
<!-- 31 -->
<g id="node31" class="node">
<title>31</title>
<g id="a_node31"><a xlink:title="31">
<ellipse fill="#d9534f" stroke="black" cx="2904.6" cy="-763.8" rx="21.6" ry="21.6"/>
<text xml:space="preserve" text-anchor="middle" x="2904.6" y="-758.78" font-family="Helvetica,sans-Serif" font-size="12.00" fill="#ffffff">31</text>
</a>
</g>
</g>
<!-- 31&#45;&#45;46 -->
<g id="edge20" class="edge">
<title>31&#45;&#45;46</title>
<path fill="none" stroke="#666666" stroke-width="3" d="M2892.32,-745.62C2875.74,-722.43 2846.37,-681.34 2829.82,-658.19"/>
<text xml:space="preserve" text-anchor="middle" x="2873.77" y="-694.2" font-family="Times,serif" font-size="20.00" fill="#333333">4</text>
</g>
<!-- 47 -->
<g id="node47" class="node">
<title>47</title>
<g id="a_node47"><a xlink:title="47">
<ellipse fill="#3b78d8" stroke="black" cx="2991.6" cy="-640.1" rx="21.6" ry="21.6"/>
<text xml:space="preserve" text-anchor="middle" x="2991.6" y="-635.08" font-family="Helvetica,sans-Serif" font-size="12.00" fill="#ffffff">47</text>
</a>
</g>
</g>
<!-- 31&#45;&#45;47 -->
<g id="edge21" class="edge">
<title>31&#45;&#45;47</title>
<path fill="none" stroke="#666666" stroke-width="3.6" d="M2916.88,-745.62C2933.46,-722.43 2962.83,-681.34 2979.38,-658.19"/>
<text xml:space="preserve" text-anchor="middle" x="2960.77" y="-694.2" font-family="Times,serif" font-size="20.00" fill="#333333">5</text>
</g>
<!-- 32 -->
<g id="node32" class="node">
<title>32</title>
<g id="a_node32"><a xlink:title="32">
<ellipse fill="#d9534f" stroke="black" cx="3092.6" cy="-763.8" rx="21.6" ry="21.6"/>
<text xml:space="preserve" text-anchor="middle" x="3092.6" y="-758.78" font-family="Helvetica,sans-Serif" font-size="12.00" fill="#ffffff">32</text>
</a>
</g>
</g>
<!-- 32&#45;&#45;47 -->
<g id="edge22" class="edge">
<title>32&#45;&#45;47</title>
<path fill="none" stroke="#666666" stroke-width="2.4" d="M3079.19,-746.64C3059.87,-723.36 3024.42,-680.64 3005.07,-657.33"/>
<text xml:space="preserve" text-anchor="middle" x="3056.02" y="-694.2" font-family="Times,serif" font-size="20.00" fill="#333333">3</text>
</g>
<!-- 48 -->
<g id="node48" class="node">
<title>48</title>
<g id="a_node48"><a xlink:title="48">
<ellipse fill="#3b78d8" stroke="black" cx="3136.6" cy="-640.1" rx="21.6" ry="21.6"/>
<text xml:space="preserve" text-anchor="middle" x="3136.6" y="-635.08" font-family="Helvetica,sans-Serif" font-size="12.00" fill="#ffffff">48</text>
</a>
</g>
</g>
<!-- 32&#45;&#45;48 -->
<g id="edge23" class="edge">
<title>32&#45;&#45;48</title>
<path fill="none" stroke="#666666" stroke-width="1.8" d="M3099.77,-742.98C3107.95,-720.35 3121.25,-683.54 3129.44,-660.92"/>
<text xml:space="preserve" text-anchor="middle" x="3123.42" y="-694.2" font-family="Times,serif" font-size="20.00" fill="#333333">2</text>
</g>
</g>
</svg>
