<?xml version="1.0" encoding="UTF-8" standalone="no"?>
<!DOCTYPE svg PUBLIC "-//W3C//DTD SVG 1.1//EN"
 "http://www.w3.org/Graphics/SVG/1.1/DTD/svg11.dtd">
<!-- Generated by graphviz version 14.0.2 (20251019.1705)
 -->
<!-- Title: qttalt4 Pages: 1 -->
<svg width="4448pt" height="299pt"
 viewBox="0.00 0.00 4448.00 299.00" xmlns="http://www.w3.org/2000/svg" xmlns:xlink="http://www.w3.org/1999/xlink">
<g id="graph0" class="graph" transform="scale(1 1) rotate(0) translate(4 294.6)">
<title>qttalt4</title>
<polygon fill="white" stroke="none" points="-4,4 -4,-294.6 4443.64,-294.6 4443.64,4 -4,4"/>
<!-- 1 -->
<g id="node1" class="node">
<title>1</title>
<ellipse fill="#6f42c1" stroke="black" cx="133.04" cy="-269" rx="21.6" ry="21.6"/>
<text xml:space="preserve" text-anchor="middle" x="133.04" y="-263.98" font-family="Helvetica,sans-Serif" font-size="12.00" fill="#ffffff">1</text>
</g>
<!-- 9 -->
<g id="node9" class="node">
<title>9</title>
<ellipse fill="#f1c40f" stroke="black" cx="252.04" cy="-145.3" rx="21.6" ry="21.6"/>
<text xml:space="preserve" text-anchor="middle" x="252.04" y="-140.27" font-family="Helvetica,sans-Serif" font-size="12.00" fill="#333333">9</text>
</g>
<!-- 1&#45;&#45;9 -->
<g id="edge33" class="edge">
<title>1&#45;&#45;9</title>
<path fill="none" stroke="#666666" stroke-width="10" d="M142.65,-249.43C151.22,-233.98 164.83,-211.99 180.54,-195.9 196.26,-179.79 217.91,-165.63 233.25,-156.61"/>
<text xml:space="preserve" text-anchor="middle" x="190.29" y="-199.4" font-family="Times,serif" font-size="20.00" fill="#333333">60</text>
</g>
<!-- 1&#45;&#45;9 -->
<!-- 17 -->
<g id="node17" class="node">
<title>17</title>
<ellipse fill="#d9534f" stroke="black" cx="76.04" cy="-145.3" rx="21.6" ry="21.6"/>
<text xml:space="preserve" text-anchor="middle" x="76.04" y="-140.27" font-family="Helvetica,sans-Serif" font-size="12.00" fill="#ffffff">17</text>
</g>
<!-- 1&#45;&#45;17 -->
<g id="edge32" class="edge">
<title>1&#45;&#45;17</title>
<path fill="none" stroke="#666666" stroke-width="10" d="M111.23,-266.77C81.34,-263.77 28.62,-253.5 4.54,-218.4 -13.41,-192.23 29.23,-167.22 56.13,-154.67"/>
<text xml:space="preserve" text-anchor="middle" x="14.29" y="-199.4" font-family="Times,serif" font-size="20.00" fill="#333333">36</text>
</g>
<!-- 1&#45;&#45;17 -->
<!-- 2 -->
<g id="node2" class="node">
<title>2</title>
<ellipse fill="#6f42c1" stroke="black" cx="415.04" cy="-269" rx="21.6" ry="21.6"/>
<text xml:space="preserve" text-anchor="middle" x="415.04" y="-263.98" font-family="Helvetica,sans-Serif" font-size="12.00" fill="#ffffff">2</text>
</g>
<!-- 2&#45;&#45;9 -->
<g id="edge34" class="edge">
<title>2&#45;&#45;9</title>
<path fill="none" stroke="#666666" stroke-width="10" d="M397.9,-255.21C366.52,-231.77 300.16,-182.23 268.95,-158.92"/>
<text xml:space="preserve" text-anchor="middle" x="357.89" y="-199.4" font-family="Times,serif" font-size="20.00" fill="#333333">60</text>
</g>
<!-- 10 -->
<g id="node10" class="node">
<title>10</title>
<ellipse fill="#f1c40f" stroke="black" cx="502.04" cy="-145.3" rx="21.6" ry="21.6"/>
<text xml:space="preserve" text-anchor="middle" x="502.04" y="-140.27" font-family="Helvetica,sans-Serif" font-size="12.00" fill="#333333">10</text>
</g>
<!-- 2&#45;&#45;10 -->
<g id="edge35" class="edge">
<title>2&#45;&#45;10</title>
<path fill="none" stroke="#666666" stroke-width="10" d="M423.47,-248.76C430.49,-233.71 441.29,-212.61 453.54,-195.9 463.08,-182.88 475.92,-169.9 485.99,-160.49"/>
<text xml:space="preserve" text-anchor="middle" x="463.29" y="-199.4" font-family="Times,serif" font-size="20.00" fill="#333333">60</text>
</g>
<!-- 3 -->
<g id="node3" class="node">
<title>3</title>
<ellipse fill="#6f42c1" stroke="black" cx="609.04" cy="-269" rx="21.6" ry="21.6"/>
<text xml:space="preserve" text-anchor="middle" x="609.04" y="-263.98" font-family="Helvetica,sans-Serif" font-size="12.00" fill="#ffffff">3</text>
</g>
<!-- 3&#45;&#45;10 -->
<g id="edge36" class="edge">
<title>3&#45;&#45;10</title>
<path fill="none" stroke="#666666" stroke-width="10" d="M595.05,-252.09C574.54,-228.77 536.54,-185.54 516.03,-162.21"/>
<text xml:space="preserve" text-anchor="middle" x="574.87" y="-199.4" font-family="Times,serif" font-size="20.00" fill="#333333">60</text>
</g>
<!-- 11 -->
<g id="node11" class="node">
<title>11</title>
<ellipse fill="#f1c40f" stroke="black" cx="696.04" cy="-145.3" rx="21.6" ry="21.6"/>
<text xml:space="preserve" text-anchor="middle" x="696.04" y="-140.27" font-family="Helvetica,sans-Serif" font-size="12.00" fill="#333333">11</text>
</g>
<!-- 3&#45;&#45;11 -->
<g id="edge37" class="edge">
<title>3&#45;&#45;11</title>
<path fill="none" stroke="#666666" stroke-width="10" d="M617.47,-248.76C624.49,-233.71 635.29,-212.61 647.54,-195.9 657.08,-182.88 669.92,-169.9 679.99,-160.49"/>
<text xml:space="preserve" text-anchor="middle" x="657.29" y="-199.4" font-family="Times,serif" font-size="20.00" fill="#333333">60</text>
</g>
<!-- 4 -->
<g id="node4" class="node">
<title>4</title>
<ellipse fill="#6f42c1" stroke="black" cx="803.04" cy="-269" rx="21.6" ry="21.6"/>
<text xml:space="preserve" text-anchor="middle" x="803.04" y="-263.98" font-family="Helvetica,sans-Serif" font-size="12.00" fill="#ffffff">4</text>
</g>
<!-- 4&#45;&#45;11 -->
<g id="edge38" class="edge">
<title>4&#45;&#45;11</title>
<path fill="none" stroke="#666666" stroke-width="10" d="M789.05,-252.09C768.54,-228.77 730.54,-185.54 710.03,-162.21"/>
<text xml:space="preserve" text-anchor="middle" x="768.87" y="-199.4" font-family="Times,serif" font-size="20.00" fill="#333333">60</text>
</g>
<!-- 12 -->
<g id="node12" class="node">
<title>12</title>
<ellipse fill="#f1c40f" stroke="black" cx="890.04" cy="-145.3" rx="21.6" ry="21.6"/>
<text xml:space="preserve" text-anchor="middle" x="890.04" y="-140.27" font-family="Helvetica,sans-Serif" font-size="12.00" fill="#333333">12</text>
</g>
<!-- 4&#45;&#45;12 -->
<g id="edge39" class="edge">
<title>4&#45;&#45;12</title>
<path fill="none" stroke="#666666" stroke-width="10" d="M811.47,-248.76C818.49,-233.71 829.29,-212.61 841.54,-195.9 851.08,-182.88 863.92,-169.9 873.99,-160.49"/>
<text xml:space="preserve" text-anchor="middle" x="851.29" y="-199.4" font-family="Times,serif" font-size="20.00" fill="#333333">60</text>
</g>
<!-- 5 -->
<g id="node5" class="node">
<title>5</title>
<ellipse fill="#6f42c1" stroke="black" cx="997.04" cy="-269" rx="21.6" ry="21.6"/>
<text xml:space="preserve" text-anchor="middle" x="997.04" y="-263.98" font-family="Helvetica,sans-Serif" font-size="12.00" fill="#ffffff">5</text>
</g>
<!-- 5&#45;&#45;12 -->
<g id="edge40" class="edge">
<title>5&#45;&#45;12</title>
<path fill="none" stroke="#666666" stroke-width="10" d="M983.05,-252.09C962.54,-228.77 924.54,-185.54 904.03,-162.21"/>
<text xml:space="preserve" text-anchor="middle" x="962.87" y="-199.4" font-family="Times,serif" font-size="20.00" fill="#333333">60</text>
</g>
<!-- 13 -->
<g id="node13" class="node">
<title>13</title>
<ellipse fill="#f1c40f" stroke="black" cx="1084.04" cy="-145.3" rx="21.6" ry="21.6"/>
<text xml:space="preserve" text-anchor="middle" x="1084.04" y="-140.27" font-family="Helvetica,sans-Serif" font-size="12.00" fill="#333333">13</text>
</g>
<!-- 5&#45;&#45;13 -->
<g id="edge41" class="edge">
<title>5&#45;&#45;13</title>
<path fill="none" stroke="#666666" stroke-width="10" d="M1005.47,-248.76C1012.49,-233.71 1023.29,-212.61 1035.54,-195.9 1045.08,-182.88 1057.92,-169.9 1067.99,-160.49"/>
<text xml:space="preserve" text-anchor="middle" x="1045.29" y="-199.4" font-family="Times,serif" font-size="20.00" fill="#333333">60</text>
</g>
<!-- 6 -->
<g id="node6" class="node">
<title>6</title>
<ellipse fill="#6f42c1" stroke="black" cx="1191.04" cy="-269" rx="21.6" ry="21.6"/>
<text xml:space="preserve" text-anchor="middle" x="1191.04" y="-263.98" font-family="Helvetica,sans-Serif" font-size="12.00" fill="#ffffff">6</text>
</g>
<!-- 6&#45;&#45;13 -->
<g id="edge42" class="edge">
<title>6&#45;&#45;13</title>
<path fill="none" stroke="#666666" stroke-width="10" d="M1177.05,-252.09C1156.54,-228.77 1118.54,-185.54 1098.03,-162.21"/>
<text xml:space="preserve" text-anchor="middle" x="1156.87" y="-199.4" font-family="Times,serif" font-size="20.00" fill="#333333">60</text>
</g>
<!-- 14 -->
<g id="node14" class="node">
<title>14</title>
<ellipse fill="#f1c40f" stroke="black" cx="1278.04" cy="-145.3" rx="21.6" ry="21.6"/>
<text xml:space="preserve" text-anchor="middle" x="1278.04" y="-140.27" font-family="Helvetica,sans-Serif" font-size="12.00" fill="#333333">14</text>
</g>
<!-- 6&#45;&#45;14 -->
<g id="edge43" class="edge">
<title>6&#45;&#45;14</title>
<path fill="none" stroke="#666666" stroke-width="10" d="M1199.47,-248.76C1206.49,-233.71 1217.29,-212.61 1229.54,-195.9 1239.08,-182.88 1251.92,-169.9 1261.99,-160.49"/>
<text xml:space="preserve" text-anchor="middle" x="1239.29" y="-199.4" font-family="Times,serif" font-size="20.00" fill="#333333">32</text>
</g>
<!-- 7 -->
<g id="node7" class="node">
<title>7</title>
<ellipse fill="#6f42c1" stroke="black" cx="1406.04" cy="-269" rx="21.6" ry="21.6"/>
<text xml:space="preserve" text-anchor="middle" x="1406.04" y="-263.98" font-family="Helvetica,sans-Serif" font-size="12.00" fill="#ffffff">7</text>
</g>
<!-- 7&#45;&#45;14 -->
<g id="edge44" class="edge">
<title>7&#45;&#45;14</title>
<path fill="none" stroke="#666666" stroke-width="10" d="M1390.6,-253.32C1366,-229.93 1318.17,-184.46 1293.53,-161.03"/>
<text xml:space="preserve" text-anchor="middle" x="1363.25" y="-199.4" font-family="Times,serif" font-size="20.00" fill="#333333">16</text>
</g>
<!-- 15 -->
<g id="node15" class="node">
<title>15</title>
<ellipse fill="#f1c40f" stroke="black" cx="1462.04" cy="-145.3" rx="21.6" ry="21.6"/>
<text xml:space="preserve" text-anchor="middle" x="1462.04" y="-140.27" font-family="Helvetica,sans-Serif" font-size="12.00" fill="#333333">15</text>
</g>
<!-- 7&#45;&#45;15 -->
<g id="edge45" class="edge">
<title>7&#45;&#45;15</title>
<path fill="none" stroke="#666666" stroke-width="5.4" d="M1412.59,-248.05C1417.65,-233.37 1425.14,-213.06 1433.29,-195.9 1438.5,-184.93 1445.27,-173.15 1450.94,-163.83"/>
<text xml:space="preserve" text-anchor="middle" x="1438.16" y="-199.4" font-family="Times,serif" font-size="20.00" fill="#333333">8</text>
</g>
<!-- 8 -->
<g id="node8" class="node">
<title>8</title>
<ellipse fill="#6f42c1" stroke="black" cx="1546.04" cy="-269" rx="21.6" ry="21.6"/>
<text xml:space="preserve" text-anchor="middle" x="1546.04" y="-263.98" font-family="Helvetica,sans-Serif" font-size="12.00" fill="#ffffff">8</text>
</g>
<!-- 8&#45;&#45;15 -->
<g id="edge46" class="edge">
<title>8&#45;&#45;15</title>
<path fill="none" stroke="#666666" stroke-width="3" d="M1534,-250.56C1518.04,-227.43 1490.01,-186.82 1474.05,-163.7"/>
<text xml:space="preserve" text-anchor="middle" x="1516.44" y="-199.4" font-family="Times,serif" font-size="20.00" fill="#333333">4</text>
</g>
<!-- 16 -->
<g id="node16" class="node">
<title>16</title>
<ellipse fill="#f1c40f" stroke="black" cx="1607.04" cy="-145.3" rx="21.6" ry="21.6"/>
<text xml:space="preserve" text-anchor="middle" x="1607.04" y="-140.27" font-family="Helvetica,sans-Serif" font-size="12.00" fill="#333333">16</text>
</g>
<!-- 8&#45;&#45;16 -->
<g id="edge47" class="edge">
<title>8&#45;&#45;16</title>
<path fill="none" stroke="#666666" stroke-width="1.8" d="M1555.44,-249.25C1566.93,-226.31 1586.28,-187.73 1597.73,-164.87"/>
<text xml:space="preserve" text-anchor="middle" x="1586.88" y="-199.4" font-family="Times,serif" font-size="20.00" fill="#333333">2</text>
</g>
<!-- 33 -->
<g id="node33" class="node">
<title>33</title>
<ellipse fill="#3b78d8" stroke="black" cx="851.04" cy="-21.6" rx="21.6" ry="21.6"/>
<text xml:space="preserve" text-anchor="middle" x="851.04" y="-16.57" font-family="Helvetica,sans-Serif" font-size="12.00" fill="#ffffff">33</text>
</g>
<!-- 17&#45;&#45;33 -->
<g id="edge31" class="edge">
<title>17&#45;&#45;33</title>
<path fill="none" stroke="#666666" stroke-width="10" d="M97.33,-140.45C120.95,-136.21 160.18,-129.26 194.04,-123.7 443.44,-82.75 746.94,-37.87 829.46,-25.76"/>
<text xml:space="preserve" text-anchor="middle" x="526.89" y="-75.7" font-family="Times,serif" font-size="20.00" fill="#333333">60</text>
</g>
<!-- 18 -->
<g id="node18" class="node">
<title>18</title>
<ellipse fill="#d9534f" stroke="black" cx="1722.04" cy="-145.3" rx="21.6" ry="21.6"/>
<text xml:space="preserve" text-anchor="middle" x="1722.04" y="-140.27" font-family="Helvetica,sans-Serif" font-size="12.00" fill="#ffffff">18</text>
</g>
<!-- 18&#45;&#45;33 -->
<g id="edge30" class="edge">
<title>18&#45;&#45;33</title>
<path fill="none" stroke="#666666" stroke-width="10" d="M1702.32,-135.94C1691.5,-131.67 1677.73,-126.74 1665.04,-123.7 1356.22,-49.7 967.75,-27.91 872.74,-23.52"/>
<text xml:space="preserve" text-anchor="middle" x="1521.27" y="-75.7" font-family="Times,serif" font-size="20.00" fill="#333333">60</text>
</g>
<!-- 34 -->
<g id="node34" class="node">
<title>34</title>
<ellipse fill="#3b78d8" stroke="black" cx="1795.04" cy="-21.6" rx="21.6" ry="21.6"/>
<text xml:space="preserve" text-anchor="middle" x="1795.04" y="-16.57" font-family="Helvetica,sans-Serif" font-size="12.00" fill="#ffffff">34</text>
</g>
<!-- 18&#45;&#45;34 -->
<g id="edge29" class="edge">
<title>18&#45;&#45;34</title>
<path fill="none" stroke="#666666" stroke-width="10" d="M1713.37,-125C1707.89,-109.73 1703.4,-88.35 1712.54,-72.2 1725.62,-49.07 1754.28,-35.54 1774.12,-28.6"/>
<text xml:space="preserve" text-anchor="middle" x="1722.29" y="-75.7" font-family="Times,serif" font-size="20.00" fill="#333333">60</text>
</g>
<!-- 19 -->
<g id="node19" class="node">
<title>19</title>
<ellipse fill="#d9534f" stroke="black" cx="1877.04" cy="-145.3" rx="21.6" ry="21.6"/>
<text xml:space="preserve" text-anchor="middle" x="1877.04" y="-140.27" font-family="Helvetica,sans-Serif" font-size="12.00" fill="#ffffff">19</text>
</g>
<!-- 19&#45;&#45;34 -->
<g id="edge28" class="edge">
<title>19&#45;&#45;34</title>
<path fill="none" stroke="#666666" stroke-width="10" d="M1865.29,-126.86C1849.7,-103.73 1822.34,-63.12 1806.77,-40"/>
<text xml:space="preserve" text-anchor="middle" x="1853.13" y="-75.7" font-family="Times,serif" font-size="20.00" fill="#333333">60</text>
</g>
<!-- 35 -->
<g id="node35" class="node">
<title>35</title>
<ellipse fill="#3b78d8" stroke="black" cx="1940.04" cy="-21.6" rx="21.6" ry="21.6"/>
<text xml:space="preserve" text-anchor="middle" x="1940.04" y="-16.57" font-family="Helvetica,sans-Serif" font-size="12.00" fill="#ffffff">35</text>
</g>
<!-- 19&#45;&#45;35 -->
<g id="edge27" class="edge">
<title>19&#45;&#45;35</title>
<path fill="none" stroke="#666666" stroke-width="10" d="M1883.88,-124.53C1889.28,-109.75 1897.42,-89.25 1906.54,-72.2 1912.62,-60.84 1920.67,-48.85 1927.35,-39.5"/>
<text xml:space="preserve" text-anchor="middle" x="1916.29" y="-75.7" font-family="Times,serif" font-size="20.00" fill="#333333">60</text>
</g>
<!-- 20 -->
<g id="node20" class="node">
<title>20</title>
<ellipse fill="#d9534f" stroke="black" cx="2062.04" cy="-145.3" rx="21.6" ry="21.6"/>
<text xml:space="preserve" text-anchor="middle" x="2062.04" y="-140.27" font-family="Helvetica,sans-Serif" font-size="12.00" fill="#ffffff">20</text>
</g>
<!-- 20&#45;&#45;35 -->
<g id="edge26" class="edge">
<title>20&#45;&#45;35</title>
<path fill="none" stroke="#666666" stroke-width="10" d="M2047.08,-129.38C2023.66,-106.02 1978.61,-61.08 1955.12,-37.64"/>
<text xml:space="preserve" text-anchor="middle" x="2021.72" y="-75.7" font-family="Times,serif" font-size="20.00" fill="#333333">60</text>
</g>
<!-- 36 -->
<g id="node36" class="node">
<title>36</title>
<ellipse fill="#3b78d8" stroke="black" cx="2158.04" cy="-21.6" rx="21.6" ry="21.6"/>
<text xml:space="preserve" text-anchor="middle" x="2158.04" y="-16.57" font-family="Helvetica,sans-Serif" font-size="12.00" fill="#ffffff">36</text>
</g>
<!-- 20&#45;&#45;36 -->
<g id="edge25" class="edge">
<title>20&#45;&#45;36</title>
<path fill="none" stroke="#666666" stroke-width="10" d="M2070.09,-124.76C2076.89,-109.55 2087.6,-88.38 2100.54,-72.2 2112.15,-57.68 2128.42,-44.11 2140.68,-34.85"/>
<text xml:space="preserve" text-anchor="middle" x="2110.29" y="-75.7" font-family="Times,serif" font-size="20.00" fill="#333333">60</text>
</g>
<!-- 21 -->
<g id="node21" class="node">
<title>21</title>
<ellipse fill="#d9534f" stroke="black" cx="2256.04" cy="-145.3" rx="21.6" ry="21.6"/>
<text xml:space="preserve" text-anchor="middle" x="2256.04" y="-140.27" font-family="Helvetica,sans-Serif" font-size="12.00" fill="#ffffff">21</text>
</g>
<!-- 21&#45;&#45;36 -->
<g id="edge24" class="edge">
<title>21&#45;&#45;36</title>
<path fill="none" stroke="#666666" stroke-width="10" d="M2242.82,-127.89C2224.12,-104.66 2190.12,-62.44 2171.36,-39.14"/>
<text xml:space="preserve" text-anchor="middle" x="2225.57" y="-75.7" font-family="Times,serif" font-size="20.00" fill="#333333">60</text>
</g>
<!-- 37 -->
<g id="node37" class="node">
<title>37</title>
<ellipse fill="#3b78d8" stroke="black" cx="2353.04" cy="-21.6" rx="21.6" ry="21.6"/>
<text xml:space="preserve" text-anchor="middle" x="2353.04" y="-16.57" font-family="Helvetica,sans-Serif" font-size="12.00" fill="#ffffff">37</text>
</g>
<!-- 21&#45;&#45;37 -->
<g id="edge1" class="edge">
<title>21&#45;&#45;37</title>
<path fill="none" stroke="#666666" stroke-width="10" d="M2264.05,-124.73C2270.84,-109.51 2281.53,-88.32 2294.54,-72.2 2306.33,-57.59 2322.88,-44.03 2335.37,-34.79"/>
<text xml:space="preserve" text-anchor="middle" x="2304.29" y="-75.7" font-family="Times,serif" font-size="20.00" fill="#333333">60</text>
</g>
<!-- 22 -->
<g id="node22" class="node">
<title>22</title>
<ellipse fill="#d9534f" stroke="black" cx="2450.04" cy="-145.3" rx="21.6" ry="21.6"/>
<text xml:space="preserve" text-anchor="middle" x="2450.04" y="-140.27" font-family="Helvetica,sans-Serif" font-size="12.00" fill="#ffffff">22</text>
</g>
<!-- 22&#45;&#45;37 -->
<g id="edge2" class="edge">
<title>22&#45;&#45;37</title>
<path fill="none" stroke="#666666" stroke-width="10" d="M2432.37,-132.11C2419.88,-122.87 2403.33,-109.31 2391.54,-94.7 2378.53,-78.58 2367.84,-57.39 2361.05,-42.17"/>
<text xml:space="preserve" text-anchor="middle" x="2401.29" y="-75.7" font-family="Times,serif" font-size="20.00" fill="#333333">47</text>
</g>
<!-- 38 -->
<g id="node38" class="node">
<title>38</title>
<ellipse fill="#3b78d8" stroke="black" cx="2547.04" cy="-21.6" rx="21.6" ry="21.6"/>
<text xml:space="preserve" text-anchor="middle" x="2547.04" y="-16.57" font-family="Helvetica,sans-Serif" font-size="12.00" fill="#ffffff">38</text>
</g>
<!-- 22&#45;&#45;38 -->
<g id="edge3" class="edge">
<title>22&#45;&#45;38</title>
<path fill="none" stroke="#666666" stroke-width="10" d="M2458.05,-124.73C2464.84,-109.51 2475.53,-88.32 2488.54,-72.2 2500.33,-57.59 2516.88,-44.03 2529.37,-34.79"/>
<text xml:space="preserve" text-anchor="middle" x="2498.29" y="-75.7" font-family="Times,serif" font-size="20.00" fill="#333333">56</text>
</g>
<!-- 23 -->
<g id="node23" class="node">
<title>23</title>
<ellipse fill="#d9534f" stroke="black" cx="2644.04" cy="-145.3" rx="21.6" ry="21.6"/>
<text xml:space="preserve" text-anchor="middle" x="2644.04" y="-140.27" font-family="Helvetica,sans-Serif" font-size="12.00" fill="#ffffff">23</text>
</g>
<!-- 23&#45;&#45;38 -->
<g id="edge4" class="edge">
<title>23&#45;&#45;38</title>
<path fill="none" stroke="#666666" stroke-width="10" d="M2626.37,-132.11C2613.88,-122.87 2597.33,-109.31 2585.54,-94.7 2572.53,-78.58 2561.84,-57.39 2555.05,-42.17"/>
<text xml:space="preserve" text-anchor="middle" x="2595.29" y="-75.7" font-family="Times,serif" font-size="20.00" fill="#333333">35</text>
</g>
<!-- 39 -->
<g id="node39" class="node">
<title>39</title>
<ellipse fill="#3b78d8" stroke="black" cx="2765.04" cy="-21.6" rx="21.6" ry="21.6"/>
<text xml:space="preserve" text-anchor="middle" x="2765.04" y="-16.57" font-family="Helvetica,sans-Serif" font-size="12.00" fill="#ffffff">39</text>
</g>
<!-- 23&#45;&#45;39 -->
<g id="edge5" class="edge">
<title>23&#45;&#45;39</title>
<path fill="none" stroke="#666666" stroke-width="10" d="M2658.88,-129.38C2682.1,-106.02 2726.78,-61.08 2750.08,-37.64"/>
<text xml:space="preserve" text-anchor="middle" x="2725.13" y="-75.7" font-family="Times,serif" font-size="20.00" fill="#333333">41</text>
</g>
<!-- 24 -->
<g id="node24" class="node">
<title>24</title>
<ellipse fill="#d9534f" stroke="black" cx="2858.04" cy="-145.3" rx="21.6" ry="21.6"/>
<text xml:space="preserve" text-anchor="middle" x="2858.04" y="-140.27" font-family="Helvetica,sans-Serif" font-size="12.00" fill="#ffffff">24</text>
</g>
<!-- 24&#45;&#45;39 -->
<g id="edge6" class="edge">
<title>24&#45;&#45;39</title>
<path fill="none" stroke="#666666" stroke-width="10" d="M2845.3,-127.63C2827.59,-104.46 2795.71,-62.73 2777.92,-39.46"/>
<text xml:space="preserve" text-anchor="middle" x="2829.62" y="-75.7" font-family="Times,serif" font-size="20.00" fill="#333333">28</text>
</g>
<!-- 40 -->
<g id="node40" class="node">
<title>40</title>
<ellipse fill="#3b78d8" stroke="black" cx="2910.04" cy="-21.6" rx="21.6" ry="21.6"/>
<text xml:space="preserve" text-anchor="middle" x="2910.04" y="-16.57" font-family="Helvetica,sans-Serif" font-size="12.00" fill="#ffffff">40</text>
</g>
<!-- 24&#45;&#45;40 -->
<g id="edge7" class="edge">
<title>24&#45;&#45;40</title>
<path fill="none" stroke="#666666" stroke-width="10" d="M2861.42,-123.47C2864.28,-108.72 2869.12,-88.7 2876.54,-72.2 2881.82,-60.45 2889.85,-48.44 2896.72,-39.19"/>
<text xml:space="preserve" text-anchor="middle" x="2886.29" y="-75.7" font-family="Times,serif" font-size="20.00" fill="#333333">33</text>
</g>
<!-- 25 -->
<g id="node25" class="node">
<title>25</title>
<ellipse fill="#d9534f" stroke="black" cx="3012.04" cy="-145.3" rx="21.6" ry="21.6"/>
<text xml:space="preserve" text-anchor="middle" x="3012.04" y="-140.27" font-family="Helvetica,sans-Serif" font-size="12.00" fill="#ffffff">25</text>
</g>
<!-- 25&#45;&#45;40 -->
<g id="edge8" class="edge">
<title>25&#45;&#45;40</title>
<path fill="none" stroke="#666666" stroke-width="10" d="M2998.49,-128.14C2978.99,-104.86 2943.18,-62.14 2923.64,-38.83"/>
<text xml:space="preserve" text-anchor="middle" x="2979.92" y="-75.7" font-family="Times,serif" font-size="20.00" fill="#333333">22</text>
</g>
<!-- 41 -->
<g id="node41" class="node">
<title>41</title>
<ellipse fill="#3b78d8" stroke="black" cx="3129.04" cy="-21.6" rx="21.6" ry="21.6"/>
<text xml:space="preserve" text-anchor="middle" x="3129.04" y="-16.57" font-family="Helvetica,sans-Serif" font-size="12.00" fill="#ffffff">41</text>
</g>
<!-- 25&#45;&#45;41 -->
<g id="edge9" class="edge">
<title>25&#45;&#45;41</title>
<path fill="none" stroke="#666666" stroke-width="10" d="M3026.39,-129.38C3048.84,-106.02 3092.05,-61.08 3114.58,-37.64"/>
<text xml:space="preserve" text-anchor="middle" x="3090.77" y="-75.7" font-family="Times,serif" font-size="20.00" fill="#333333">27</text>
</g>
<!-- 26 -->
<g id="node26" class="node">
<title>26</title>
<ellipse fill="#d9534f" stroke="black" cx="3226.04" cy="-145.3" rx="21.6" ry="21.6"/>
<text xml:space="preserve" text-anchor="middle" x="3226.04" y="-140.27" font-family="Helvetica,sans-Serif" font-size="12.00" fill="#ffffff">26</text>
</g>
<!-- 26&#45;&#45;41 -->
<g id="edge10" class="edge">
<title>26&#45;&#45;41</title>
<path fill="none" stroke="#666666" stroke-width="10" d="M3208.37,-132.11C3195.88,-122.87 3179.33,-109.31 3167.54,-94.7 3154.53,-78.58 3143.84,-57.39 3137.05,-42.17"/>
<text xml:space="preserve" text-anchor="middle" x="3177.29" y="-75.7" font-family="Times,serif" font-size="20.00" fill="#333333">19</text>
</g>
<!-- 42 -->
<g id="node42" class="node">
<title>42</title>
<ellipse fill="#3b78d8" stroke="black" cx="3347.04" cy="-21.6" rx="21.6" ry="21.6"/>
<text xml:space="preserve" text-anchor="middle" x="3347.04" y="-16.57" font-family="Helvetica,sans-Serif" font-size="12.00" fill="#ffffff">42</text>
</g>
<!-- 26&#45;&#45;42 -->
<g id="edge11" class="edge">
<title>26&#45;&#45;42</title>
<path fill="none" stroke="#666666" stroke-width="10" d="M3240.88,-129.38C3264.1,-106.02 3308.78,-61.08 3332.08,-37.64"/>
<text xml:space="preserve" text-anchor="middle" x="3307.13" y="-75.7" font-family="Times,serif" font-size="20.00" fill="#333333">21</text>
</g>
<!-- 27 -->
<g id="node27" class="node">
<title>27</title>
<ellipse fill="#d9534f" stroke="black" cx="3420.04" cy="-145.3" rx="21.6" ry="21.6"/>
<text xml:space="preserve" text-anchor="middle" x="3420.04" y="-140.27" font-family="Helvetica,sans-Serif" font-size="12.00" fill="#ffffff">27</text>
</g>
<!-- 27&#45;&#45;42 -->
<g id="edge12" class="edge">
<title>27&#45;&#45;42</title>
<path fill="none" stroke="#666666" stroke-width="9" d="M3409.27,-126.34C3395.47,-103.33 3371.68,-63.68 3357.85,-40.63"/>
<text xml:space="preserve" text-anchor="middle" x="3399.83" y="-75.7" font-family="Times,serif" font-size="20.00" fill="#333333">14</text>
</g>
<!-- 43 -->
<g id="node43" class="node">
<title>43</title>
<ellipse fill="#3b78d8" stroke="black" cx="3492.04" cy="-21.6" rx="21.6" ry="21.6"/>
<text xml:space="preserve" text-anchor="middle" x="3492.04" y="-16.57" font-family="Helvetica,sans-Serif" font-size="12.00" fill="#ffffff">43</text>
</g>
<!-- 27&#45;&#45;43 -->
<g id="edge13" class="edge">
<title>27&#45;&#45;43</title>
<path fill="none" stroke="#666666" stroke-width="10" d="M3429.49,-125.33C3436.98,-110.61 3447.92,-89.82 3458.54,-72.2 3465.19,-61.16 3473.26,-49.18 3479.81,-39.76"/>
<text xml:space="preserve" text-anchor="middle" x="3468.29" y="-75.7" font-family="Times,serif" font-size="20.00" fill="#333333">20</text>
</g>
<!-- 28 -->
<g id="node28" class="node">
<title>28</title>
<ellipse fill="#d9534f" stroke="black" cx="3614.04" cy="-145.3" rx="21.6" ry="21.6"/>
<text xml:space="preserve" text-anchor="middle" x="3614.04" y="-140.27" font-family="Helvetica,sans-Serif" font-size="12.00" fill="#ffffff">28</text>
</g>
<!-- 28&#45;&#45;43 -->
<g id="edge14" class="edge">
<title>28&#45;&#45;43</title>
<path fill="none" stroke="#666666" stroke-width="7.8" d="M3599.08,-129.38C3575.66,-106.02 3530.61,-61.08 3507.12,-37.64"/>
<text xml:space="preserve" text-anchor="middle" x="3573.72" y="-75.7" font-family="Times,serif" font-size="20.00" fill="#333333">12</text>
</g>
<!-- 44 -->
<g id="node44" class="node">
<title>44</title>
<ellipse fill="#3b78d8" stroke="black" cx="3701.04" cy="-21.6" rx="21.6" ry="21.6"/>
<text xml:space="preserve" text-anchor="middle" x="3701.04" y="-16.57" font-family="Helvetica,sans-Serif" font-size="12.00" fill="#ffffff">44</text>
</g>
<!-- 28&#45;&#45;44 -->
<g id="edge15" class="edge">
<title>28&#45;&#45;44</title>
<path fill="none" stroke="#666666" stroke-width="10" d="M3622.47,-125.06C3629.49,-110.01 3640.29,-88.91 3652.54,-72.2 3662.08,-59.18 3674.92,-46.2 3684.99,-36.79"/>
<text xml:space="preserve" text-anchor="middle" x="3662.29" y="-75.7" font-family="Times,serif" font-size="20.00" fill="#333333">18</text>
</g>
<!-- 29 -->
<g id="node29" class="node">
<title>29</title>
<ellipse fill="#d9534f" stroke="black" cx="3832.04" cy="-145.3" rx="21.6" ry="21.6"/>
<text xml:space="preserve" text-anchor="middle" x="3832.04" y="-140.27" font-family="Helvetica,sans-Serif" font-size="12.00" fill="#ffffff">29</text>
</g>
<!-- 29&#45;&#45;44 -->
<g id="edge16" class="edge">
<title>29&#45;&#45;44</title>
<path fill="none" stroke="#666666" stroke-width="7.8" d="M3816.5,-129.86C3791.29,-106.44 3741.76,-60.43 3716.56,-37.02"/>
<text xml:space="preserve" text-anchor="middle" x="3788.02" y="-75.7" font-family="Times,serif" font-size="20.00" fill="#333333">12</text>
</g>
<!-- 45 -->
<g id="node45" class="node">
<title>45</title>
<ellipse fill="#3b78d8" stroke="black" cx="3895.04" cy="-21.6" rx="21.6" ry="21.6"/>
<text xml:space="preserve" text-anchor="middle" x="3895.04" y="-16.57" font-family="Helvetica,sans-Serif" font-size="12.00" fill="#ffffff">45</text>
</g>
<!-- 29&#45;&#45;45 -->
<g id="edge17" class="edge">
<title>29&#45;&#45;45</title>
<path fill="none" stroke="#666666" stroke-width="10" d="M3833.09,-123.36C3834.58,-108.37 3838.12,-88.12 3846.54,-72.2 3854.19,-57.72 3867.4,-44.63 3878.11,-35.53"/>
<text xml:space="preserve" text-anchor="middle" x="3856.29" y="-75.7" font-family="Times,serif" font-size="20.00" fill="#333333">18</text>
</g>
<!-- 30 -->
<g id="node30" class="node">
<title>30</title>
<ellipse fill="#d9534f" stroke="black" cx="3977.04" cy="-145.3" rx="21.6" ry="21.6"/>
<text xml:space="preserve" text-anchor="middle" x="3977.04" y="-140.27" font-family="Helvetica,sans-Serif" font-size="12.00" fill="#ffffff">30</text>
</g>
<!-- 30&#45;&#45;45 -->
<g id="edge18" class="edge">
<title>30&#45;&#45;45</title>
<path fill="none" stroke="#666666" stroke-width="7.8" d="M3965.25,-126.86C3958.83,-117.36 3950.74,-105.38 3943.54,-94.7 3930.98,-76.06 3916.61,-54.69 3906.79,-40.09"/>
<text xml:space="preserve" text-anchor="middle" x="3953.29" y="-75.7" font-family="Times,serif" font-size="20.00" fill="#333333">12</text>
</g>
<!-- 46 -->
<g id="node46" class="node">
<title>46</title>
<ellipse fill="#3b78d8" stroke="black" cx="4089.04" cy="-21.6" rx="21.6" ry="21.6"/>
<text xml:space="preserve" text-anchor="middle" x="4089.04" y="-16.57" font-family="Helvetica,sans-Serif" font-size="12.00" fill="#ffffff">46</text>
</g>
<!-- 30&#45;&#45;46 -->
<g id="edge19" class="edge">
<title>30&#45;&#45;46</title>
<path fill="none" stroke="#666666" stroke-width="9.6" d="M3991.22,-128.89C4012.65,-105.6 4053.05,-61.71 4074.62,-38.27"/>
<text xml:space="preserve" text-anchor="middle" x="4052.82" y="-75.7" font-family="Times,serif" font-size="20.00" fill="#333333">15</text>
</g>
<!-- 31 -->
<g id="node31" class="node">
<title>31</title>
<ellipse fill="#d9534f" stroke="black" cx="4195.04" cy="-145.3" rx="21.6" ry="21.6"/>
<text xml:space="preserve" text-anchor="middle" x="4195.04" y="-140.27" font-family="Helvetica,sans-Serif" font-size="12.00" fill="#ffffff">31</text>
</g>
<!-- 31&#45;&#45;46 -->
<g id="edge20" class="edge">
<title>31&#45;&#45;46</title>
<path fill="none" stroke="#666666" stroke-width="6.6" d="M4181.18,-128.39C4160.87,-105.07 4123.22,-61.84 4102.9,-38.51"/>
<text xml:space="preserve" text-anchor="middle" x="4161.28" y="-75.7" font-family="Times,serif" font-size="20.00" fill="#333333">10</text>
</g>
<!-- 47 -->
<g id="node47" class="node">
<title>47</title>
<ellipse fill="#3b78d8" stroke="black" cx="4273.04" cy="-21.6" rx="21.6" ry="21.6"/>
<text xml:space="preserve" text-anchor="middle" x="4273.04" y="-16.57" font-family="Helvetica,sans-Serif" font-size="12.00" fill="#ffffff">47</text>
</g>
<!-- 31&#45;&#45;47 -->
<g id="edge21" class="edge">
<title>31&#45;&#45;47</title>
<path fill="none" stroke="#666666" stroke-width="5.4" d="M4206.38,-126.6C4221.17,-103.53 4246.89,-63.4 4261.68,-40.32"/>
<text xml:space="preserve" text-anchor="middle" x="4245.9" y="-75.7" font-family="Times,serif" font-size="20.00" fill="#333333">8</text>
</g>
<!-- 32 -->
<g id="node32" class="node">
<title>32</title>
<ellipse fill="#d9534f" stroke="black" cx="4374.04" cy="-145.3" rx="21.6" ry="21.6"/>
<text xml:space="preserve" text-anchor="middle" x="4374.04" y="-140.27" font-family="Helvetica,sans-Serif" font-size="12.00" fill="#ffffff">32</text>
</g>
<!-- 32&#45;&#45;47 -->
<g id="edge22" class="edge">
<title>32&#45;&#45;47</title>
<path fill="none" stroke="#666666" stroke-width="3" d="M4360.63,-128.14C4341.31,-104.86 4305.86,-62.14 4286.51,-38.83"/>
<text xml:space="preserve" text-anchor="middle" x="4337.46" y="-75.7" font-family="Times,serif" font-size="20.00" fill="#333333">4</text>
</g>
<!-- 48 -->
<g id="node48" class="node">
<title>48</title>
<ellipse fill="#3b78d8" stroke="black" cx="4418.04" cy="-21.6" rx="21.6" ry="21.6"/>
<text xml:space="preserve" text-anchor="middle" x="4418.04" y="-16.57" font-family="Helvetica,sans-Serif" font-size="12.00" fill="#ffffff">48</text>
</g>
<!-- 32&#45;&#45;48 -->
<g id="edge23" class="edge">
<title>32&#45;&#45;48</title>
<path fill="none" stroke="#666666" stroke-width="1.8" d="M4381.21,-124.48C4389.39,-101.85 4402.69,-65.04 4410.87,-42.42"/>
<text xml:space="preserve" text-anchor="middle" x="4404.86" y="-75.7" font-family="Times,serif" font-size="20.00" fill="#333333">2</text>
</g>
</g>
</svg>
